<svg preserveAspectRatio="none" viewBox="0 0 1440 139" fill="none" xmlns="http://www.w3.org/2000/svg">
    <path fill-rule="evenodd" clip-rule="evenodd"
          d="M0 53.6491L48 39.424C96 25.1988 192 -3.25148 288 0.304804C384 3.86109 480 39.424 576 39.424C672 39.424 768 3.86109 864 7.41738C960 10.9737 1056 53.6491 1152 71.4306C1248 89.212 1344 82.0994 1392 78.5431L1440 74.9868V139H1392C1344 139 1248 139 1152 139C1056 139 960 139 864 139C768 139 672 139 576 139C480 139 384 139 288 139C192 139 96 139 48 139H0V53.6491Z"
          fill="#F3F3F3"/>
</svg>
