<svg width="1629" height="529" viewBox="0 0 1629 529" fill="none" xmlns="http://www.w3.org/2000/svg">
<path d="M612.564 498.316C587.605 386.609 579.019 299.29 581.266 231.962M581.266 231.962C594.91 -176.762 1007.83 151.23 581.266 231.962ZM581.266 231.962C517.604 244.011 435.242 250.553 330.064 248.315" stroke="white" stroke-width="60" stroke-linecap="round"/>
<path d="M144.469 241.869L131.268 120.4L125.584 120.502L100.825 204.889L88.5423 205.149C87.3508 205.248 86.4533 205.697 85.923 206.46C85.3927 207.223 85.2447 208.277 85.491 209.537C86.0832 211.933 88.4608 213.892 90.6735 213.886L98.4755 213.986L90.3904 243.449L144.469 241.869Z" fill="white"/>
<path d="M144.459 241.881L131.258 120.413L125.574 120.514L100.815 204.901L88.5321 205.161C87.3406 205.26 86.4431 205.71 85.9128 206.472C85.3825 207.235 85.2345 208.289 85.4807 209.55C86.073 211.945 88.4505 213.904 90.6633 213.898L98.4652 213.998L90.3802 243.462L144.459 241.881Z" fill="white"/>
<path d="M93.4445 229.943C35.3173 230.991 -3.69234 238.482 0.277391 253.956C4.24713 269.429 46.7376 275.927 105.03 275.339L153.994 272.619C201.142 268.304 245.06 260.132 245.06 260.132L283.248 294.217L288.407 294.176L269.835 258.892C269.835 258.892 282.069 258.126 280.087 250.338C278.106 242.551 265.579 242.068 265.579 242.068L266.282 206.554L260.938 206.439L240.203 241.299C240.203 241.299 192.271 234.426 143.284 231.253L93.4445 229.943Z" fill="white"/>
<path d="M112.456 300.131L124.878 299.987L192.073 383.234L197.757 383.132L153.898 272.545L104.934 275.265L117.878 291.32L110.059 291.242C108.867 291.341 107.97 291.79 107.439 292.553C106.909 293.315 106.761 294.37 107.007 295.63C107.831 298.22 110.208 300.179 112.456 300.131Z" fill="white"/>
<path d="M112.466 300.119L124.888 299.976L192.082 383.222L197.766 383.12L148.408 258.319L92.7444 260.002L117.888 291.308L110.068 291.23C108.877 291.329 107.979 291.778 107.449 292.541C106.919 293.303 106.771 294.358 107.017 295.618C107.84 298.208 110.218 300.167 112.466 300.119Z" fill="white"/>
<path d="M911.452 478.838H873V221.807H911.452V239.922C926.605 224.769 943.809 217.192 963.063 217.192C985.964 217.192 1004.82 225.623 1019.63 242.485C1034.67 259.233 1042.19 280.368 1042.19 305.889C1042.19 330.84 1034.73 351.632 1019.8 368.267C1004.99 384.787 986.306 393.047 963.747 393.047C944.265 393.047 926.833 385.243 911.452 369.634V478.838ZM1002.88 306.06C1002.88 290.109 998.553 277.121 989.895 267.095C981.122 256.955 970.07 251.885 956.74 251.885C942.613 251.885 931.162 256.784 922.39 266.582C913.617 276.38 909.23 289.255 909.23 305.205C909.23 320.814 913.617 333.688 922.39 343.828C931.049 353.74 942.442 358.696 956.569 358.696C969.899 358.696 980.894 353.683 989.553 343.657C998.439 333.631 1002.88 321.099 1002.88 306.06Z" fill="white"/>
<path d="M1121.32 221.807V317.339C1121.32 344.91 1132.2 358.696 1153.96 358.696C1175.72 358.696 1186.6 344.91 1186.6 317.339V221.807H1225.05V318.193C1225.05 331.523 1223.4 343.031 1220.09 352.715C1216.9 361.374 1211.38 369.178 1203.52 376.128C1190.53 387.407 1174.01 393.047 1153.96 393.047C1134.02 393.047 1117.56 387.407 1104.57 376.128C1096.59 369.178 1090.95 361.374 1087.65 352.715C1084.46 344.967 1082.86 333.46 1082.86 318.193V221.807H1121.32Z" fill="white"/>
<path d="M1312.04 99.6143V388.262H1273.59V99.6143H1312.04Z" fill="white"/>
<path d="M1400.56 257.695V388.262H1361.94V257.695H1348.27V221.807H1361.94V157.549C1361.94 136.585 1365.59 121.774 1372.88 113.115C1382.9 101.038 1397.49 95 1416.63 95C1423.46 95 1432.07 96.9938 1442.43 100.981V140.288L1438.5 138.237C1430.19 134.022 1423.35 131.914 1418 131.914C1411.16 131.914 1406.54 134.364 1404.15 139.263C1401.76 144.048 1400.56 153.276 1400.56 166.948V221.807H1442.43V257.695H1400.56Z" fill="white"/>
<path d="M1517.12 357.329L1442.26 221.807H1486.87L1537.79 317.51L1585.3 221.807H1628.71L1496.1 478.838H1452.17L1517.12 357.329Z" fill="white"/>
</svg>
