<svg xmlns="http://www.w3.org/2000/svg" viewBox="0 0 299.33 86.54"><defs><style>.cls-1{fill:#f4f6f6;}</style></defs><g id="Layer_2" data-name="Layer 2"><g id="Layer_2-2" data-name="Layer 2"><path class="cls-1" d="M7.43,64.22Q2.27,62.39,0,60.11l4.63-8.3a23.25,23.25,0,0,0,5.72,3.46,17.92,17.92,0,0,0,7.47,1.79,12.28,12.28,0,0,0,7.56-2.19,7.1,7.1,0,0,0,2.93-6,8.55,8.55,0,0,0-1.57-5.15,13.73,13.73,0,0,0-3.85-3.63c-1.51-1-3.67-2.14-6.46-3.54a67.68,67.68,0,0,1-6.82-3.67A17.91,17.91,0,0,1,1.14,17.13q0-8.31,5.5-12.72T20.53,0A23.32,23.32,0,0,1,35.82,5.16l-4.63,8a13.57,13.57,0,0,0-4.67-3A16.48,16.48,0,0,0,20.1,8.83a10.79,10.79,0,0,0-6.86,2,7,7,0,0,0-2.49,5.81,8,8,0,0,0,1.57,4.85,14.91,14.91,0,0,0,4,3.71c1.6,1.05,3.77,2.34,6.5,3.85s4.64,2.61,6,3.45a23.51,23.51,0,0,1,3.94,3,18.22,18.22,0,0,1,4.1,5.42,15.21,15.21,0,0,1,1.58,6.9,17.9,17.9,0,0,1-2.67,10A16.71,16.71,0,0,1,28.44,64a25.65,25.65,0,0,1-10.62,2.1A30.85,30.85,0,0,1,7.43,64.22Z"/><path class="cls-1" d="M56,63.26a19.38,19.38,0,0,1-7.43-7.6A21.86,21.86,0,0,1,46,45a22,22,0,0,1,2.58-10.57,19.08,19.08,0,0,1,7.38-7.61A21.68,21.68,0,0,1,67,24a21.47,21.47,0,0,1,11,2.79,19.25,19.25,0,0,1,7.34,7.61A22,22,0,0,1,88,45a22,22,0,0,1-2.62,10.66A19.48,19.48,0,0,1,78,63.26a21.27,21.27,0,0,1-11,2.8A21.51,21.51,0,0,1,56,63.26Zm19.26-8.65a14.89,14.89,0,0,0,2.93-9.44,14.7,14.7,0,0,0-3.15-9.56,10.12,10.12,0,0,0-8.3-3.89,9.65,9.65,0,0,0-8,3.84,15.12,15.12,0,0,0-3,9.61A14,14,0,0,0,59,54.57a10.4,10.4,0,0,0,8.3,3.8A9.56,9.56,0,0,0,75.27,54.61Z"/><path class="cls-1" d="M98.67,1.54h9v64h-9Z"/><path class="cls-1" d="M129.14,63.26a19.38,19.38,0,0,1-7.43-7.6A21.86,21.86,0,0,1,119.09,45a22,22,0,0,1,2.58-10.57,19.15,19.15,0,0,1,7.38-7.61,23.38,23.38,0,0,1,22.15,0,19.25,19.25,0,0,1,7.34,7.61A22,22,0,0,1,161.12,45a22,22,0,0,1-2.62,10.66,19.48,19.48,0,0,1-7.39,7.6,21.27,21.27,0,0,1-11,2.8A21.51,21.51,0,0,1,129.14,63.26Zm19.26-8.65a14.89,14.89,0,0,0,2.93-9.44,14.74,14.74,0,0,0-3.14-9.56,10.14,10.14,0,0,0-8.3-3.89,9.67,9.67,0,0,0-8,3.84,15.11,15.11,0,0,0-3,9.61,14,14,0,0,0,3.23,9.4,10.4,10.4,0,0,0,8.3,3.8A9.56,9.56,0,0,0,148.4,54.61Z"/><path class="cls-1" d="M174.67,32.54h-7v-8h7V8.2l10-2.1V24.54h9v8h-9v32h-10Z"/><path class="cls-1" d="M200.67,25.54h9v7.84A13.67,13.67,0,0,1,214,26.93a10.58,10.58,0,0,1,6.84-2.44,8.68,8.68,0,0,1,3.66.53l-1.25,9.5A6.46,6.46,0,0,0,220,34a11,11,0,0,0-7.12,2.62q-3.21,2.61-3.21,8.36V65.54h-9Z"/><path class="cls-1" d="M233.46,15.73a6.2,6.2,0,0,1-1.83-4.55A5.6,5.6,0,0,1,233.46,7,6.35,6.35,0,0,1,238,5.24,6.25,6.25,0,0,1,242.46,7a5.6,5.6,0,0,1,1.84,4.19,6.25,6.25,0,0,1-1.8,4.55,6,6,0,0,1-4.5,1.83A6.18,6.18,0,0,1,233.46,15.73Zm-.79,9.81h10v40h-10Z"/><path class="cls-1" d="M256.67,25.54h9v7.39q4.75-8.43,14.88-8.43,8.4,0,13.59,5.34t5.19,15.43a23.05,23.05,0,0,1-2.55,11,18.36,18.36,0,0,1-16.66,10,19.68,19.68,0,0,1-8.69-1.78,13.57,13.57,0,0,1-5.76-5.08l.09,27.11h-9.09Zm29.62,28.94a13.94,13.94,0,0,0,3.06-9.31q0-5.94-3-9.48-3.25-3.8-9.68-3.52a9.12,9.12,0,0,0-1.64.23,11.55,11.55,0,0,0-7.73,5.65,13.12,13.12,0,0,0-1.62,6.6v.61A13.6,13.6,0,0,0,267.29,52a11.81,11.81,0,0,0,4.32,4.54,11.37,11.37,0,0,0,5.94,1.61Q283.23,58.1,286.29,54.48Z"/></g></g></svg>