<svg width="52" height="60" viewBox="0 0 52 60" fill="none" xmlns="http://www.w3.org/2000/svg">
<path d="M33.4577 31.0287C30.5176 32.8559 26.7866 32.8205 23.8816 30.9378L12.7097 23.6973C8.14786 20.7408 6.88249 14.6259 9.89636 10.1017V10.1017C13.1196 5.26318 19.8328 4.3 24.2865 8.03709L34.4849 16.5945C39.1421 20.5024 38.6214 27.8196 33.4577 31.0287V31.0287Z" fill="url(#paint0_linear)"/>
<path d="M32.0472 18.3524C35.507 18.2401 38.7205 20.1363 40.2949 23.2192L46.3498 35.0756C48.8222 39.9169 46.8606 45.8452 41.9884 48.2564V48.2564C36.7777 50.8351 30.4823 48.3126 28.4939 42.8493L23.9406 30.3392C21.8612 24.6262 25.9707 18.5497 32.0472 18.3524V18.3524Z" fill="url(#paint1_linear)"/>
<path d="M12.3245 6.66296C15.7844 6.55064 18.9978 8.44681 20.5722 11.5297L26.6271 23.3861C29.0996 28.2275 27.138 34.1558 22.2658 36.5669V36.5669C17.0551 39.1456 10.7597 36.6231 8.77122 31.1599L4.21791 18.6498C2.13855 12.9368 6.24809 6.86023 12.3245 6.66296V6.66296Z" fill="url(#paint2_linear)"/>
<path d="M37.5476 50.6889C34.6074 52.5161 30.8764 52.4806 27.9715 50.598L16.7996 43.3575C12.2377 40.401 10.9723 34.2861 13.9862 29.7619V29.7619C17.2095 24.9233 23.9227 23.9602 28.3764 27.6972L38.5747 36.2547C43.232 40.1626 42.7113 47.4798 37.5476 50.6889V50.6889Z" fill="url(#paint3_linear)"/>
<defs>
<linearGradient id="paint0_linear" x1="37.8937" y1="23.4716" x2="16.7315" y2="31.2796" gradientUnits="userSpaceOnUse">
<stop stop-color="#41287B"/>
<stop offset="0.123" stop-color="#462779"/>
<stop offset="0.284" stop-color="#572775"/>
<stop offset="0.465" stop-color="#72266E"/>
<stop offset="0.663" stop-color="#982565"/>
<stop offset="0.87" stop-color="#C82459"/>
<stop offset="0.99" stop-color="#E72452"/>
</linearGradient>
<linearGradient id="paint1_linear" x1="45.3778" y1="28.8582" x2="25.9722" y2="35.9212" gradientUnits="userSpaceOnUse">
<stop stop-color="#3CAFEB"/>
<stop offset="1" stop-color="#621D7A"/>
</linearGradient>
<linearGradient id="paint2_linear" x1="25.6552" y1="17.1687" x2="6.2496" y2="24.2318" gradientUnits="userSpaceOnUse">
<stop/>
<stop offset="1" stop-color="#556F75"/>
</linearGradient>
<linearGradient id="paint3_linear" x1="20.75" y1="48.2559" x2="34.0242" y2="32.4363" gradientUnits="userSpaceOnUse">
<stop stop-color="#20002C"/>
<stop offset="1" stop-color="#CBB4D4"/>
</linearGradient>
</defs>
</svg>
