<svg width="1061" height="468" viewBox="0 0 1061 468" fill="none" xmlns="http://www.w3.org/2000/svg">
<g filter="url(#filter0_d_1450_2516)">
<path d="M413.76 393.637H380.801V173.324H413.76V188.852C426.748 175.863 441.494 169.369 457.998 169.369C477.627 169.369 493.789 176.596 506.484 191.049C519.375 205.404 525.82 223.52 525.82 245.395C525.82 266.781 519.424 284.604 506.631 298.861C493.936 313.021 477.92 320.102 458.584 320.102C441.885 320.102 426.943 313.412 413.76 300.033V393.637ZM492.129 245.541C492.129 231.869 488.418 220.736 480.996 212.143C473.477 203.451 464.004 199.105 452.578 199.105C440.469 199.105 430.654 203.305 423.135 211.703C415.615 220.102 411.855 231.137 411.855 244.809C411.855 258.188 415.615 269.223 423.135 277.914C430.557 286.41 440.322 290.658 452.432 290.658C463.857 290.658 473.281 286.361 480.703 277.768C488.32 269.174 492.129 258.432 492.129 245.541ZM593.643 173.324V255.209C593.643 278.842 602.969 290.658 621.621 290.658C640.273 290.658 649.6 278.842 649.6 255.209V173.324H682.559V255.941C682.559 267.367 681.143 277.23 678.311 285.531C675.576 292.953 670.84 299.643 664.102 305.6C652.969 315.268 638.809 320.102 621.621 320.102C604.531 320.102 590.42 315.268 579.287 305.6C572.451 299.643 567.617 292.953 564.785 285.531C562.051 278.891 560.684 269.027 560.684 255.941V173.324H593.643ZM757.119 68.5879V316H724.16V68.5879H757.119ZM832.998 204.086V316H799.893V204.086H788.174V173.324H799.893V118.246C799.893 100.277 803.018 87.582 809.268 80.1602C817.861 69.8086 830.361 64.6328 846.768 64.6328C852.627 64.6328 860 66.3418 868.887 69.7598V103.451L865.518 101.693C858.389 98.0801 852.529 96.2734 847.939 96.2734C842.08 96.2734 838.125 98.373 836.074 102.572C834.023 106.674 832.998 114.584 832.998 126.303V173.324H868.887V204.086H832.998ZM932.9 289.486L868.74 173.324H906.973L950.625 255.355L991.348 173.324H1028.55L914.883 393.637H877.236L932.9 289.486Z" fill="white"/>
<path d="M233.312 251.377C212.809 264.119 186.792 263.872 166.534 250.743L88.6288 200.253C56.8172 179.636 47.9933 136.995 69.0101 105.446V105.446C91.4873 71.7049 138.301 64.9883 169.358 91.0484L240.475 150.722C272.951 177.974 269.32 228.999 233.312 251.377V251.377Z" fill="url(#paint0_linear_1450_2516)"/>
<path d="M223.465 162.971C247.592 162.188 270 175.41 280.979 196.909L323.202 279.587C340.443 313.348 326.764 354.688 292.789 371.502V371.502C256.452 389.484 212.553 371.894 198.686 333.797L166.934 246.559C152.434 206.721 181.092 164.347 223.465 162.971V162.971Z" fill="url(#paint1_linear_1450_2516)"/>
<path d="M85.9384 81.4632C110.065 80.68 132.474 93.9027 143.453 115.401L185.676 198.08C202.917 231.84 189.238 273.181 155.262 289.994V289.994C118.926 307.976 75.0261 290.386 61.1598 252.289L29.408 165.052C14.9079 125.213 43.5652 82.8389 85.9384 81.4632V81.4632Z" fill="url(#paint2_linear_1450_2516)"/>
<path d="M261.825 388.472C241.322 401.214 215.305 400.967 195.048 387.838L117.142 337.348C85.3304 316.731 76.5066 274.089 97.5234 242.541V242.541C120.001 208.8 166.814 202.083 197.871 228.143L268.988 287.817C301.465 315.068 297.834 366.094 261.825 388.472V388.472Z" fill="url(#paint3_linear_1450_2516)"/>
</g>
<defs>
<filter id="filter0_d_1450_2516" x="0" y="0" width="1075" height="467.402" filterUnits="userSpaceOnUse" color-interpolation-filters="sRGB">
<feFlood flood-opacity="0" result="BackgroundImageFix"/>
<feColorMatrix in="SourceAlpha" type="matrix" values="0 0 0 0 0 0 0 0 0 0 0 0 0 0 0 0 0 0 127 0" result="hardAlpha"/>
<feOffset dx="10" dy="10"/>
<feGaussianBlur stdDeviation="2"/>
<feComposite in2="hardAlpha" operator="out"/>
<feColorMatrix type="matrix" values="0 0 0 0 0 0 0 0 0 0 0 0 0 0 0 0 0 0 0.25 0"/>
<feBlend mode="normal" in2="BackgroundImageFix" result="effect1_dropShadow_1450_2516"/>
<feBlend mode="normal" in="SourceGraphic" in2="effect1_dropShadow_1450_2516" result="shape"/>
</filter>
<linearGradient id="paint0_linear_1450_2516" x1="242.987" y1="282.406" x2="91.4869" y2="98.4057" gradientUnits="userSpaceOnUse">
<stop stop-color="#1B242E"/>
<stop offset="1" stop-color="#90C2FD"/>
</linearGradient>
<linearGradient id="paint1_linear_1450_2516" x1="230.6" y1="131.262" x2="269.803" y2="366.361" gradientUnits="userSpaceOnUse">
<stop stop-color="#1B242E"/>
<stop offset="1" stop-color="#90C2FD"/>
</linearGradient>
<linearGradient id="paint2_linear_1450_2516" x1="93.0741" y1="49.7542" x2="132.277" y2="284.853" gradientUnits="userSpaceOnUse">
<stop stop-color="#1B242E"/>
<stop offset="1" stop-color="#90C2FD"/>
</linearGradient>
<linearGradient id="paint3_linear_1450_2516" x1="271.5" y1="419.5" x2="120" y2="235.5" gradientUnits="userSpaceOnUse">
<stop stop-color="#1B242E"/>
<stop offset="1" stop-color="#90C2FD"/>
</linearGradient>
</defs>
</svg>
