<svg width="52" height="60" viewBox="0 0 52 60" fill="none" xmlns="http://www.w3.org/2000/svg">
<path d="M233.312 216.378C212.809 229.119 186.792 228.872 166.534 215.744L88.6288 165.253C56.8172 144.637 47.9933 101.995 69.0101 70.4464V70.4464C91.4873 36.7054 138.301 29.9888 169.358 56.0489L240.475 115.723C272.951 142.974 269.32 194 233.312 216.378V216.378Z" fill="url(#paint0_linear_1443_2461)"/>
<path d="M223.465 127.971C247.592 127.188 270 140.41 280.979 161.909L323.202 244.587C340.443 278.348 326.764 319.688 292.789 336.502V336.502C256.453 354.484 212.553 336.894 198.686 298.797L166.934 211.559C152.434 171.721 181.092 129.347 223.465 127.971V127.971Z" fill="url(#paint1_linear_1443_2461)"/>
<path d="M85.9386 46.4632C110.065 45.68 132.474 58.9027 143.453 80.401L185.676 163.08C202.917 196.84 189.238 238.181 155.263 254.994V254.994C118.926 272.976 75.0264 255.386 61.1601 217.289L29.4082 130.052C14.9081 90.2128 43.5654 47.8389 85.9386 46.4632V46.4632Z" fill="url(#paint2_linear_1443_2461)"/>
<path d="M261.825 353.471C241.322 366.213 215.305 365.966 195.048 352.837L117.142 302.347C85.3303 281.73 76.5065 239.089 97.5233 207.54V207.54C120 173.799 166.814 167.083 197.871 193.143L268.988 252.817C301.465 280.068 297.834 331.093 261.825 353.471V353.471Z" fill="url(#paint3_linear_1443_2461)"/>
<defs>
<linearGradient id="paint0_linear_1443_2461" x1="242.987" y1="247.406" x2="91.4869" y2="63.4062" gradientUnits="userSpaceOnUse">
<stop stop-color="#1B242E"/>
<stop offset="1" stop-color="#90C2FD"/>
</linearGradient>
<linearGradient id="paint1_linear_1443_2461" x1="230.601" y1="96.262" x2="269.803" y2="331.361" gradientUnits="userSpaceOnUse">
<stop stop-color="#1B242E"/>
<stop offset="1" stop-color="#90C2FD"/>
</linearGradient>
<linearGradient id="paint2_linear_1443_2461" x1="93.0743" y1="14.7542" x2="132.277" y2="249.853" gradientUnits="userSpaceOnUse">
<stop stop-color="#1B242E"/>
<stop offset="1" stop-color="#90C2FD"/>
</linearGradient>
<linearGradient id="paint3_linear_1443_2461" x1="271.5" y1="384.5" x2="120" y2="200.5" gradientUnits="userSpaceOnUse">
<stop stop-color="#1B242E"/>
<stop offset="1" stop-color="#90C2FD"/>
</linearGradient>
</defs>
</svg>
