<svg preserveAspectRatio="none" viewBox="0 0 235 1024" fill="none" xmlns="http://www.w3.org/2000/svg">
    <path fill-rule="evenodd" clip-rule="evenodd"
          d="M144.298 -15L168.348 19.6333C192.398 54.2667 240.497 123.533 234.485 192.8C228.472 262.067 168.348 331.333 168.348 400.6C168.348 469.867 228.472 539.133 222.46 608.4C216.447 677.667 144.298 746.933 114.236 816.2C84.174 885.467 96.1988 954.733 102.211 989.367L108.224 1024H7.97231e-06L7.97231e-06 989.367C7.97231e-06 954.733 7.97231e-06 885.467 7.97231e-06 816.2C7.97231e-06 746.933 7.97231e-06 677.667 7.97231e-06 608.4C7.97231e-06 539.133 7.97231e-06 469.867 7.97231e-06 400.6C7.97231e-06 331.333 7.97231e-06 262.067 7.97231e-06 192.8C7.97231e-06 123.533 7.97231e-06 54.2667 7.97231e-06 19.6333V-15L144.298 -15Z"
          fill="white"/>
</svg>
