<svg width="32" height="32" viewBox="0 0 32 32" fill="none" xmlns="http://www.w3.org/2000/svg">
<path d="M24.6667 22.2073V15.6856C24.6667 15.2319 24.5741 14.7829 24.3946 14.3662C24.215 13.9495 23.9523 13.5738 23.6225 13.2622L17.4783 7.45557C17.1689 7.16301 16.7592 7 16.3333 7C15.9075 7 15.4978 7.16301 15.1883 7.45557L9.04417 13.2622C8.71435 13.5738 8.45163 13.9495 8.27208 14.3662C8.09254 14.7829 7.99995 15.2319 8 15.6856V22.2073C8 22.6493 8.17559 23.0732 8.48816 23.3858C8.80072 23.6983 9.22464 23.8739 9.66667 23.8739H23C23.442 23.8739 23.8659 23.6983 24.1785 23.3858C24.4911 23.0732 24.6667 22.6493 24.6667 22.2073Z" stroke="url(#paint0_linear_3410_9075)" stroke-width="1.2" stroke-linecap="round" stroke-linejoin="round"/>
<defs>
<linearGradient id="paint0_linear_3410_9075" x1="23.3148" y1="7" x2="13.2788" y2="17.4032" gradientUnits="userSpaceOnUse">
<stop stop-color="#3CAFEB"/>
<stop offset="1" stop-color="#AEB9EA"/>
</linearGradient>
</defs>
</svg>
