<svg width="19" height="19" viewBox="0 0 19 19" fill="none" xmlns="http://www.w3.org/2000/svg">
<path d="M17.6667 16.2073V9.68558C17.6667 9.23185 17.5741 8.78289 17.3946 8.3662C17.215 7.9495 16.9523 7.57385 16.6225 7.26225L10.4783 1.45557C10.1689 1.16301 9.75919 1 9.33333 1C8.90748 1 8.49778 1.16301 8.18833 1.45557L2.04417 7.26225C1.71435 7.57385 1.45163 7.9495 1.27208 8.3662C1.09254 8.78289 0.999952 9.23185 1 9.68558V16.2073C1 16.6493 1.17559 17.0732 1.48816 17.3858C1.80072 17.6983 2.22464 17.8739 2.66667 17.8739H16C16.442 17.8739 16.8659 17.6983 17.1785 17.3858C17.4911 17.0732 17.6667 16.6493 17.6667 16.2073Z" stroke="url(#paint0_linear_2956_8617)" stroke-width="1.2" stroke-linecap="round" stroke-linejoin="round"/>
<defs>
<linearGradient id="paint0_linear_2956_8617" x1="16.3148" y1="1" x2="6.27879" y2="11.4032" gradientUnits="userSpaceOnUse">
<stop stop-color="#3CAFEB"/>
<stop offset="1" stop-color="#AEB9EA"/>
</linearGradient>
</defs>
</svg>
