<svg width="32" height="32" viewBox="0 0 32 32" fill="none" xmlns="http://www.w3.org/2000/svg">
<path d="M12.675 20.5C13.0417 19.7917 13.3833 18.9667 13.7 18H13.3333V16.3333H14.1667C14.675 14.1667 15 11.4417 15 8H16.6667C16.6667 11.4417 17 14.1667 17.5 16.3333H18.3333V18H17.9667C18.2833 18.9667 18.625 19.7917 18.9917 20.5H20V22.1667L21.6667 24.6667H19.65C19.0083 23.2 17.5417 22.1667 15.8333 22.1667C14.125 22.1667 12.6583 23.2 12.0167 24.6667H10L11.6667 22.1667L11.6417 20.5H12.675ZM16.325 18H15.3417C15.0896 18.8553 14.7749 19.6909 14.4 20.5H17.2667C16.9333 19.775 16.6083 18.9417 16.325 18Z" fill="url(#paint0_linear_3410_9306)"/>
<defs>
<linearGradient id="paint0_linear_3410_9306" x1="20.7204" y1="8" x2="11.2549" y2="14.9536" gradientUnits="userSpaceOnUse">
<stop stop-color="#3CAFEB"/>
<stop offset="1" stop-color="#AEB9EA"/>
</linearGradient>
</defs>
</svg>
