<svg width="12" height="17" viewBox="0 0 12 17" fill="none" xmlns="http://www.w3.org/2000/svg">
<path d="M2.675 12.5C3.04167 11.7917 3.38333 10.9667 3.7 10H3.33333V8.33334H4.16667C4.675 6.16667 5 3.44167 5 0H6.66667C6.66667 3.44167 7 6.16667 7.5 8.33334H8.33333V10H7.96667C8.28333 10.9667 8.625 11.7917 8.99167 12.5H10V14.1667L11.6667 16.6667H9.65C9.00833 15.2 7.54167 14.1667 5.83333 14.1667C4.125 14.1667 2.65833 15.2 2.01667 16.6667H0L1.66667 14.1667L1.64167 12.5H2.675ZM6.325 10H5.34167C5.08964 10.8553 4.7749 11.6909 4.4 12.5H7.26667C6.93333 11.775 6.60833 10.9417 6.325 10Z" fill="url(#paint0_linear_2956_8643)"/>
<defs>
<linearGradient id="paint0_linear_2956_8643" x1="10.7204" y1="7.24252e-07" x2="1.2549" y2="6.95363" gradientUnits="userSpaceOnUse">
<stop stop-color="#3CAFEB"/>
<stop offset="1" stop-color="#AEB9EA"/>
</linearGradient>
</defs>
</svg>
