<svg width="17" height="18" viewBox="0 0 17 18" fill="none" xmlns="http://www.w3.org/2000/svg">
<path d="M13.2305 18.0004H3.24242C2.38276 17.9994 1.55859 17.6575 0.950726 17.0496C0.342862 16.4417 0.000949257 15.6175 0 14.7579L0 4.76988C0.000949257 3.91022 0.342862 3.08603 0.950726 2.47815C1.55859 1.87026 2.38276 1.52832 3.24242 1.52734H13.2305C14.0902 1.52832 14.9144 1.87026 15.5222 2.47815C16.1301 3.08603 16.472 3.91022 16.473 4.76988V14.7579C16.472 15.6175 16.1301 16.4417 15.5222 17.0496C14.9144 17.6575 14.0902 17.9994 13.2305 18.0004V18.0004ZM3.24242 2.67467C2.68695 2.67531 2.1544 2.89626 1.76163 3.28906C1.36886 3.68185 1.14794 4.2144 1.14732 4.76988V14.7579C1.14794 15.3134 1.36886 15.8459 1.76163 16.2387C2.1544 16.6315 2.68695 16.8525 3.24242 16.8531H13.2305C13.786 16.8525 14.3186 16.6315 14.7113 16.2387C15.1041 15.8459 15.325 15.3134 15.3256 14.7579V4.76988C15.325 4.2144 15.1041 3.68185 14.7113 3.28906C14.3186 2.89626 13.786 2.67531 13.2305 2.67467H3.24242Z" fill="url(#paint0_linear_3080_10602)"/>
<path d="M15.8999 5.82812H0.574219V6.97545H15.8999V5.82812Z" fill="url(#paint1_linear_3080_10602)"/>
<path d="M13.1479 4.70583C13.0725 4.70583 12.9979 4.691 12.9283 4.66217C12.8587 4.63334 12.7955 4.59109 12.7422 4.53782C12.689 4.48455 12.6467 4.4213 12.6179 4.3517C12.589 4.2821 12.5742 4.2075 12.5742 4.13216V0.573663C12.5742 0.421518 12.6347 0.275604 12.7422 0.168022C12.8498 0.0604393 12.9957 0 13.1479 0C13.3 0 13.4459 0.0604393 13.5535 0.168022C13.6611 0.275604 13.7215 0.421518 13.7215 0.573663V4.13216C13.7216 4.2075 13.7067 4.2821 13.6779 4.3517C13.6491 4.4213 13.6068 4.48455 13.5535 4.53782C13.5003 4.59109 13.437 4.63334 13.3674 4.66217C13.2978 4.691 13.2232 4.70583 13.1479 4.70583V4.70583Z" fill="url(#paint2_linear_3080_10602)"/>
<path d="M3.32366 4.70583C3.24833 4.70583 3.17373 4.691 3.10412 4.66217C3.03452 4.63334 2.97128 4.59109 2.91801 4.53782C2.86474 4.48455 2.82248 4.4213 2.79366 4.3517C2.76483 4.2821 2.74999 4.2075 2.75 4.13216V0.573663C2.75 0.421518 2.81044 0.275604 2.91802 0.168022C3.0256 0.0604393 3.17152 0 3.32366 0C3.47581 0 3.62172 0.0604393 3.7293 0.168022C3.83689 0.275604 3.89733 0.421518 3.89733 0.573663V4.13216C3.89733 4.2075 3.8825 4.2821 3.85367 4.3517C3.82484 4.4213 3.78259 4.48455 3.72932 4.53782C3.67605 4.59109 3.6128 4.63334 3.5432 4.66217C3.4736 4.691 3.399 4.70583 3.32366 4.70583Z" fill="url(#paint3_linear_3080_10602)"/>
<defs>
<linearGradient id="paint0_linear_3080_10602" x1="15.1368" y1="1.52734" x2="5.3443" y2="11.8042" gradientUnits="userSpaceOnUse">
<stop stop-color="#3CAFEB"/>
<stop offset="1" stop-color="#AEB9EA"/>
</linearGradient>
<linearGradient id="paint1_linear_3080_10602" x1="14.6568" y1="5.82813" x2="14.5599" y2="7.18687" gradientUnits="userSpaceOnUse">
<stop stop-color="#3CAFEB"/>
<stop offset="1" stop-color="#AEB9EA"/>
</linearGradient>
<linearGradient id="paint2_linear_3080_10602" x1="13.6285" y1="2.04492e-07" x2="12.2833" y2="0.344188" gradientUnits="userSpaceOnUse">
<stop stop-color="#3CAFEB"/>
<stop offset="1" stop-color="#AEB9EA"/>
</linearGradient>
<linearGradient id="paint3_linear_3080_10602" x1="3.80426" y1="2.04492e-07" x2="2.45911" y2="0.344187" gradientUnits="userSpaceOnUse">
<stop stop-color="#3CAFEB"/>
<stop offset="1" stop-color="#AEB9EA"/>
</linearGradient>
</defs>
</svg>
