<svg width="21" height="20" viewBox="0 0 21 20" fill="none" xmlns="http://www.w3.org/2000/svg">
<path d="M14.7323 0C15.5817 0 16.3963 0.337423 16.9969 0.938039C17.5975 1.53865 17.9349 2.35327 17.9349 3.20266V8.45504C17.5255 8.24554 17.0964 8.07691 16.6539 7.95158V5.12426H1.28107V14.7323C1.28107 15.2419 1.48352 15.7307 1.84389 16.091C2.20426 16.4514 2.69303 16.6539 3.20266 16.6539H7.95158C8.0784 17.1009 8.24622 17.5288 8.45504 17.9349H3.20266C2.35327 17.9349 1.53865 17.5975 0.938039 16.9969C0.337423 16.3963 0 15.5817 0 14.7323V3.20266C0 2.35327 0.337423 1.53865 0.938039 0.938039C1.53865 0.337423 2.35327 0 3.20266 0H14.7323ZM14.7323 1.28107H3.20266C2.69303 1.28107 2.20426 1.48352 1.84389 1.84389C1.48352 2.20426 1.28107 2.69303 1.28107 3.20266V3.8432H16.6539V3.20266C16.6539 2.69303 16.4514 2.20426 16.091 1.84389C15.7307 1.48352 15.2419 1.28107 14.7323 1.28107ZM11.6141 10.8148C11.7064 11.1435 11.732 11.4874 11.6895 11.8262C11.6469 12.165 11.5371 12.4919 11.3664 12.7876C11.1958 13.0834 10.9677 13.342 10.6956 13.5484C10.4236 13.7547 10.113 13.9046 9.78222 13.9892L9.19037 14.1404C9.14762 14.5734 9.15192 15.0099 9.20318 15.442L9.65155 15.5483C9.9912 15.6286 10.3109 15.7775 10.5909 15.9858C10.871 16.194 11.1055 16.4573 11.2802 16.7595C11.4548 17.0617 11.5659 17.3963 11.6066 17.743C11.6473 18.0896 11.6167 18.4409 11.5168 18.7753L11.3541 19.3159C11.6846 19.5772 12.042 19.8002 12.4238 19.9795L12.8401 19.5388C13.0798 19.285 13.3688 19.0829 13.6895 18.9448C14.0101 18.8067 14.3555 18.7356 14.7046 18.7359C15.0537 18.7361 15.3991 18.8077 15.7195 18.9462C16.0399 19.0847 16.3287 19.2873 16.568 19.5414L16.9997 20C17.3738 19.8271 17.7274 19.6131 18.0528 19.362L17.8529 18.6498C17.7605 18.3209 17.7347 17.9769 17.7772 17.638C17.8196 17.299 17.9294 16.972 18.1001 16.6761C18.2708 16.3802 18.4989 16.1214 18.7711 15.915C19.0432 15.7085 19.3539 15.5586 19.6849 15.474L20.2741 15.3241C20.3167 14.8906 20.3124 14.4538 20.2613 14.0213L19.8155 13.9162C19.4757 13.8359 19.1559 13.687 18.8758 13.4787C18.5956 13.2703 18.361 13.0069 18.1863 12.7045C18.0117 12.4022 17.9006 12.0674 17.86 11.7206C17.8194 11.3738 17.8502 11.0224 17.9503 10.6879L18.1117 10.1486C17.7816 9.88698 17.4227 9.66391 17.042 9.48373L16.6257 9.92442C16.3861 10.1783 16.0971 10.3805 15.7765 10.5187C15.456 10.6569 15.1105 10.7281 14.7614 10.728C14.4124 10.7279 14.067 10.6564 13.7465 10.518C13.426 10.3796 13.1372 10.1772 12.8978 9.92314L12.4661 9.46451C12.0924 9.6369 11.7392 9.85045 11.413 10.1012L11.6141 10.8148V10.8148ZM14.7323 16.0133C14.3925 16.0133 14.0667 15.8784 13.8264 15.6381C13.5862 15.3979 13.4512 15.072 13.4512 14.7323C13.4512 14.3925 13.5862 14.0667 13.8264 13.8264C14.0667 13.5862 14.3925 13.4512 14.7323 13.4512C15.072 13.4512 15.3979 13.5862 15.6381 13.8264C15.8784 14.0667 16.0133 14.3925 16.0133 14.7323C16.0133 15.072 15.8784 15.3979 15.6381 15.6381C15.3979 15.8784 15.072 16.0133 14.7323 16.0133Z" fill="url(#paint0_linear_3146_9017)"/>
<defs>
<linearGradient id="paint0_linear_3146_9017" x1="18.6563" y1="8.69102e-07" x2="6.77719" y2="12.6558" gradientUnits="userSpaceOnUse">
<stop stop-color="#3CAFEB"/>
<stop offset="1" stop-color="#AEB9EA"/>
</linearGradient>
</defs>
</svg>
