<svg width="32" height="32" viewBox="0 0 32 32" fill="none" xmlns="http://www.w3.org/2000/svg">
<g clip-path="url(#clip0_3410_9309)">
<path d="M21.7323 6C22.5817 6 23.3963 6.33742 23.9969 6.93804C24.5975 7.53865 24.9349 8.35327 24.9349 9.20266V14.455C24.5255 14.2455 24.0964 14.0769 23.6539 13.9516V11.1243H8.28107V20.7323C8.28107 21.2419 8.48352 21.7307 8.84389 22.091C9.20426 22.4514 9.69303 22.6539 10.2027 22.6539H14.9516C15.0784 23.1009 15.2462 23.5288 15.455 23.9349H10.2027C9.35327 23.9349 8.53865 23.5975 7.93804 22.9969C7.33742 22.3963 7 21.5817 7 20.7323V9.20266C7 8.35327 7.33742 7.53865 7.93804 6.93804C8.53865 6.33742 9.35327 6 10.2027 6H21.7323ZM21.7323 7.28107H10.2027C9.69303 7.28107 9.20426 7.48352 8.84389 7.84389C8.48352 8.20426 8.28107 8.69303 8.28107 9.20266V9.8432H23.6539V9.20266C23.6539 8.69303 23.4514 8.20426 23.091 7.84389C22.7307 7.48352 22.2419 7.28107 21.7323 7.28107ZM18.6141 16.8148C18.7064 17.1435 18.732 17.4874 18.6895 17.8262C18.6469 18.165 18.5371 18.4919 18.3664 18.7876C18.1958 19.0834 17.9677 19.342 17.6956 19.5484C17.4236 19.7547 17.113 19.9046 16.7822 19.9892L16.1904 20.1404C16.1476 20.5734 16.1519 21.0099 16.2032 21.442L16.6516 21.5483C16.9912 21.6286 17.3109 21.7775 17.5909 21.9858C17.871 22.194 18.1055 22.4573 18.2802 22.7595C18.4548 23.0617 18.5659 23.3963 18.6066 23.743C18.6473 24.0896 18.6167 24.4409 18.5168 24.7753L18.3541 25.3159C18.6846 25.5772 19.042 25.8002 19.4238 25.9795L19.8401 25.5388C20.0798 25.285 20.3688 25.0829 20.6895 24.9448C21.0101 24.8067 21.3555 24.7356 21.7046 24.7359C22.0537 24.7361 22.3991 24.8077 22.7195 24.9462C23.0399 25.0847 23.3287 25.2873 23.568 25.5414L23.9997 26C24.3738 25.8271 24.7274 25.6131 25.0528 25.362L24.8529 24.6498C24.7605 24.3209 24.7347 23.9769 24.7772 23.638C24.8196 23.299 24.9294 22.972 25.1001 22.6761C25.2708 22.3802 25.4989 22.1214 25.7711 21.915C26.0432 21.7085 26.3539 21.5586 26.6849 21.474L27.2741 21.3241C27.3167 20.8906 27.3124 20.4538 27.2613 20.0213L26.8155 19.9162C26.4757 19.8359 26.1559 19.687 25.8758 19.4787C25.5956 19.2703 25.361 19.0069 25.1863 18.7045C25.0117 18.4022 24.9006 18.0674 24.86 17.7206C24.8194 17.3738 24.8502 17.0224 24.9503 16.6879L25.1117 16.1486C24.7816 15.887 24.4227 15.6639 24.042 15.4837L23.6257 15.9244C23.3861 16.1783 23.0971 16.3805 22.7765 16.5187C22.456 16.6569 22.1105 16.7281 21.7614 16.728C21.4124 16.7279 21.067 16.6564 20.7465 16.518C20.426 16.3796 20.1372 16.1772 19.8978 15.9231L19.4661 15.4645C19.0924 15.6369 18.7392 15.8505 18.413 16.1012L18.6141 16.8148ZM21.7323 22.0133C21.3925 22.0133 21.0667 21.8784 20.8264 21.6381C20.5862 21.3979 20.4512 21.072 20.4512 20.7323C20.4512 20.3925 20.5862 20.0667 20.8264 19.8264C21.0667 19.5862 21.3925 19.4512 21.7323 19.4512C22.072 19.4512 22.3979 19.5862 22.6381 19.8264C22.8784 20.0667 23.0133 20.3925 23.0133 20.7323C23.0133 21.072 22.8784 21.3979 22.6381 21.6381C22.3979 21.8784 22.072 22.0133 21.7323 22.0133Z" fill="url(#paint0_linear_3410_9309)"/>
</g>
<defs>
<linearGradient id="paint0_linear_3410_9309" x1="25.6563" y1="6" x2="13.7772" y2="18.6558" gradientUnits="userSpaceOnUse">
<stop stop-color="#3CAFEB"/>
<stop offset="1" stop-color="#AEB9EA"/>
</linearGradient>
<clipPath id="clip0_3410_9309">
<rect width="21" height="20" fill="white" transform="translate(6 6)"/>
</clipPath>
</defs>
</svg>
