<svg width="20" height="13" viewBox="0 0 25 16" fill="none" xmlns="http://www.w3.org/2000/svg">
<path d="M5.10875 5.93008C5.40461 4.2678 6.27603 2.76267 7.57029 1.67842C8.86455 0.594182 10.4991 0 12.1875 0C13.8759 0 15.5104 0.594182 16.8047 1.67842C18.099 2.76267 18.9704 4.2678 19.2663 5.93008H19.375C20.7011 5.93008 21.9729 6.45686 22.9105 7.39455C23.8482 8.33223 24.375 9.604 24.375 10.9301C24.375 12.2562 23.8482 13.5279 22.9105 14.4656C21.9729 15.4033 20.7011 15.9301 19.375 15.9301H5C3.67392 15.9301 2.40215 15.4033 1.46447 14.4656C0.526784 13.5279 0 12.2562 0 10.9301C0 9.604 0.526784 8.33223 1.46447 7.39455C2.40215 6.45686 3.67392 5.93008 5 5.93008H5.10875ZM12.1875 1.86758C10.8246 1.86747 9.51371 2.3912 8.52607 3.33045C7.53843 4.26969 6.94956 5.5526 6.88125 6.91383C6.86938 7.15415 6.76556 7.38071 6.59128 7.54661C6.41701 7.71251 6.18561 7.80505 5.945 7.80508H5C4.1712 7.80508 3.37634 8.13432 2.79029 8.72037C2.20424 9.30642 1.875 10.1013 1.875 10.9301C1.875 11.7589 2.20424 12.5537 2.79029 13.1398C3.37634 13.7258 4.1712 14.0551 5 14.0551H19.375C20.2038 14.0551 20.9987 13.7258 21.5847 13.1398C22.1708 12.5537 22.5 11.7589 22.5 10.9301C22.5 10.1013 22.1708 9.30642 21.5847 8.72037C20.9987 8.13432 20.2038 7.80508 19.375 7.80508H18.43C18.1892 7.80537 17.9575 7.71298 17.7829 7.54704C17.6084 7.38111 17.5044 7.15437 17.4925 6.91383C17.4242 5.55281 16.8355 4.27009 15.8481 3.33088C14.8608 2.39166 13.5502 1.86779 12.1875 1.86758V1.86758Z" fill="url(#paint0_linear_3189_9016)"/>
<defs>
<linearGradient id="paint0_linear_3189_9016" x1="22.3979" y1="6.92243e-07" x2="13.8895" y2="13.6631" gradientUnits="userSpaceOnUse">
<stop stop-color="#3CAFEB"/>
<stop offset="1" stop-color="#AEB9EA"/>
</linearGradient>
</defs>
</svg>
