<svg width="17" height="17" viewBox="0 0 17 17" fill="none" xmlns="http://www.w3.org/2000/svg">
<path d="M9.82438 0C6.38 0 3.57437 2.80562 3.57437 6.25C3.57437 7.74688 4.09875 9.11688 4.98063 10.1956L0 15.175L0.89875 16.075L5.87875 11.0944C6.99116 12.0063 8.38596 12.5032 9.82438 12.5C13.2688 12.5 16.0744 9.69438 16.0744 6.25C16.0744 2.80562 13.2688 0 9.82438 0ZM9.82438 1.25C12.5931 1.25 14.8244 3.48125 14.8244 6.25C14.8244 9.01875 12.5931 11.25 9.82438 11.25C7.05563 11.25 4.82438 9.01875 4.82438 6.25C4.82438 3.48125 7.05563 1.25 9.82438 1.25ZM9.19938 3.125V3.78937C8.49625 3.90687 7.94938 4.50312 7.94938 5.23562C7.94938 5.70687 8.21063 6.1375 8.63313 6.34812L10.4494 7.265C10.4511 7.29623 10.4462 7.32747 10.435 7.35668C10.4239 7.3859 10.4067 7.41243 10.3845 7.43454C10.3624 7.45666 10.3359 7.47386 10.3067 7.48503C10.2775 7.4962 10.2462 7.50109 10.215 7.49937H9.43375C9.40252 7.50109 9.37128 7.4962 9.34207 7.48503C9.31285 7.47386 9.28632 7.45666 9.26421 7.43454C9.24209 7.41243 9.22489 7.3859 9.21372 7.35668C9.20255 7.32747 9.19766 7.29623 9.19938 7.265V6.875H7.94938V7.26562C7.94938 7.99813 8.49625 8.59375 9.19938 8.71125V9.375H10.4494V8.71062C11.1525 8.59312 11.6994 7.99688 11.6994 7.26438C11.6994 6.79313 11.4381 6.36438 11.0156 6.15188L9.19938 5.235C9.19938 5.09563 9.29438 5.00063 9.43375 5.00063H10.215C10.3544 5.00063 10.4494 5.09563 10.4494 5.235V5.625H11.6994V5.23438C11.6994 4.50187 11.1525 3.90688 10.4494 3.78875V3.125H9.19938Z" fill="url(#paint0_linear_3250_9017)"/>
<defs>
<linearGradient id="paint0_linear_3250_9017" x1="14.7706" y1="6.98541e-07" x2="5.21467" y2="10.0283" gradientUnits="userSpaceOnUse">
<stop stop-color="#3CAFEB"/>
<stop offset="1" stop-color="#AEB9EA"/>
</linearGradient>
</defs>
</svg>
