<svg width="32" height="32" viewBox="0 0 32 32" fill="none" xmlns="http://www.w3.org/2000/svg">
<path d="M17.3901 8C13.7474 8 10.7802 10.9671 10.7802 14.6096C10.7802 16.1927 11.3348 17.6415 12.2674 18.7823L7 24.0482L7.9505 25L13.2173 19.7328C14.3937 20.6972 15.8688 21.2227 17.3901 21.2193C21.0328 21.2193 24 18.2522 24 14.6096C24 10.9671 21.0328 8 17.3901 8ZM17.3901 9.32193C20.3182 9.32193 22.678 11.6816 22.678 14.6096C22.678 17.5377 20.3182 19.8974 17.3901 19.8974C14.4619 19.8974 12.1022 17.5377 12.1022 14.6096C12.1022 11.6816 14.4619 9.32193 17.3901 9.32193ZM16.7291 11.3048V12.0074C15.9855 12.1317 15.4071 12.7622 15.4071 13.5369C15.4071 14.0353 15.6834 14.4907 16.1302 14.7134L18.0511 15.683C18.0529 15.7161 18.0477 15.7491 18.0359 15.78C18.0241 15.8109 18.0059 15.839 17.9825 15.8623C17.9591 15.8857 17.9311 15.9039 17.9002 15.9157C17.8693 15.9276 17.8362 15.9327 17.8032 15.9309H16.977C16.9439 15.9327 16.9109 15.9276 16.88 15.9157C16.8491 15.9039 16.821 15.8857 16.7977 15.8623C16.7743 15.839 16.7561 15.8109 16.7443 15.78C16.7325 15.7491 16.7273 15.7161 16.7291 15.683V15.2706H15.4071V15.6837C15.4071 16.4584 15.9855 17.0883 16.7291 17.2125V17.9145H18.0511V17.2119C18.7947 17.0876 19.3731 16.457 19.3731 15.6824C19.3731 15.184 19.0967 14.7306 18.6499 14.5059L16.7291 13.5362C16.7291 13.3888 16.8296 13.2884 16.977 13.2884H17.8032C17.9506 13.2884 18.0511 13.3888 18.0511 13.5362V13.9487H19.3731V13.5356C19.3731 12.7609 18.7947 12.1317 18.0511 12.0068V11.3048H16.7291Z" fill="url(#paint0_linear_3410_9312)"/>
<defs>
<linearGradient id="paint0_linear_3410_9312" x1="22.6211" y1="8" x2="12.5153" y2="18.6057" gradientUnits="userSpaceOnUse">
<stop stop-color="#3CAFEB"/>
<stop offset="1" stop-color="#AEB9EA"/>
</linearGradient>
</defs>
</svg>
