<svg width="32" height="32" viewBox="0 0 32 32" fill="none" xmlns="http://www.w3.org/2000/svg">
<path d="M14.5621 8.5275C14.8288 7.82417 15.838 7.82417 16.1055 8.5275L17.8305 13.3058C17.9513 13.6225 18.2588 13.8333 18.6021 13.8333H22.8413C23.6246 13.8333 23.9663 14.8083 23.3505 15.2858L20.3338 18C20.1987 18.1039 20.0999 18.2479 20.0517 18.4114C20.0035 18.5749 20.0083 18.7494 20.0655 18.91L21.1671 23.5792C21.4355 24.3292 20.5671 24.9733 19.9105 24.5117L15.813 21.9117C15.6727 21.8131 15.5053 21.7601 15.3338 21.7601C15.1623 21.7601 14.995 21.8131 14.8546 21.9117L10.7571 24.5117C10.1013 24.9733 9.23214 24.3283 9.50047 23.5792L10.6021 18.91C10.6593 18.7494 10.6641 18.5749 10.6159 18.4114C10.5677 18.2479 10.4689 18.1039 10.3338 18L7.31714 15.2858C6.70047 14.8083 7.0438 13.8333 7.82547 13.8333H12.0646C12.2316 13.8339 12.3947 13.7838 12.5325 13.6896C12.6703 13.5954 12.7762 13.4616 12.8363 13.3058L14.5613 8.5275H14.5621Z" stroke="url(#paint0_linear_3410_9316)" stroke-width="1.2" stroke-linecap="round" stroke-linejoin="round"/>
<defs>
<linearGradient id="paint0_linear_3410_9316" x1="22.3155" y1="8" x2="12.4078" y2="18.3982" gradientUnits="userSpaceOnUse">
<stop stop-color="#3CAFEB"/>
<stop offset="1" stop-color="#AEB9EA"/>
</linearGradient>
</defs>
</svg>
