<svg width="19" height="19" viewBox="0 0 19 19" fill="none" xmlns="http://www.w3.org/2000/svg">
<path d="M8.56214 1.5275C8.8288 0.824167 9.83797 0.824167 10.1055 1.5275L11.8305 6.30584C11.9513 6.6225 12.2588 6.83334 12.6021 6.83334H16.8413C17.6246 6.83334 17.9663 7.80834 17.3505 8.28584L14.3338 11C14.1987 11.1039 14.0999 11.2479 14.0517 11.4114C14.0035 11.5749 14.0083 11.7494 14.0655 11.91L15.1671 16.5792C15.4355 17.3292 14.5671 17.9733 13.9105 17.5117L9.81297 14.9117C9.67265 14.8131 9.50532 14.7601 9.3338 14.7601C9.16229 14.7601 8.99496 14.8131 8.85464 14.9117L4.75714 17.5117C4.1013 17.9733 3.23214 17.3283 3.50047 16.5792L4.60214 11.91C4.65929 11.7494 4.6641 11.5749 4.61589 11.4114C4.56769 11.2479 4.46893 11.1039 4.3338 11L1.31714 8.28584C0.700471 7.80834 1.0438 6.83334 1.82547 6.83334H6.06464C6.23155 6.83389 6.39469 6.78376 6.53249 6.68956C6.67028 6.59537 6.77622 6.46156 6.8363 6.30584L8.5613 1.5275H8.56214Z" stroke="url(#paint0_linear_2956_8644)" stroke-width="1.2" stroke-linecap="round" stroke-linejoin="round"/>
<defs>
<linearGradient id="paint0_linear_2956_8644" x1="16.3155" y1="1" x2="6.40776" y2="11.3982" gradientUnits="userSpaceOnUse">
<stop stop-color="#3CAFEB"/>
<stop offset="1" stop-color="#AEB9EA"/>
</linearGradient>
</defs>
</svg>
