<svg width="32" height="32" viewBox="0 0 32 32" fill="none" xmlns="http://www.w3.org/2000/svg">
<g clip-path="url(#clip0_3410_9304)">
<path d="M24.645 16.0683L18.5769 13.0313L18.5687 9.57208C18.5689 8.89013 18.2984 8.23602 17.8168 7.75366C17.3352 7.2713 16.682 7.0002 16.0007 7C15.3194 6.9998 14.6659 7.27051 14.184 7.75258C13.7021 8.23466 13.4313 8.8886 13.4311 9.57056L13.423 13.0313L7.35498 16.0683C7.24832 16.1217 7.15861 16.2037 7.09591 16.3053C7.03322 16.4068 7 16.5239 7 16.6432V19.2145C6.99999 19.3096 7.02108 19.4036 7.06173 19.4896C7.10238 19.5755 7.16158 19.6514 7.23507 19.7117C7.30856 19.7721 7.39451 19.8153 7.4867 19.8383C7.5789 19.8613 7.67506 19.8636 7.76824 19.8449L13.4221 18.713V20.2339L12.3258 21.3313C12.2661 21.391 12.2188 21.4618 12.1865 21.5399C12.1543 21.6179 12.1377 21.7015 12.1377 21.7859V24.3572C12.1377 24.4623 12.1634 24.5657 12.2126 24.6585C12.2618 24.7513 12.3329 24.8306 12.4198 24.8895C12.5067 24.9483 12.6067 24.9851 12.711 24.9963C12.8153 25.0076 12.9208 24.9931 13.0183 24.9541L15.9909 23.7639L18.9636 24.9541C19.061 24.9931 19.1665 25.0076 19.2708 24.9963C19.3751 24.9851 19.4752 24.9483 19.562 24.8895C19.6489 24.8306 19.72 24.7513 19.7692 24.6585C19.8185 24.5657 19.8442 24.4623 19.8442 24.3572V21.7859C19.8442 21.6169 19.7778 21.4548 19.6593 21.3345L18.5779 20.2366V18.713L24.2317 19.8449C24.3249 19.8636 24.4211 19.8613 24.5133 19.8383C24.6054 19.8153 24.6914 19.7721 24.7649 19.7117C24.8384 19.6514 24.8976 19.5755 24.9382 19.4896C24.9788 19.4036 25 19.3096 25 19.2145V16.6432C24.9999 16.5239 24.9667 16.4068 24.904 16.3053C24.8413 16.2037 24.7516 16.1217 24.645 16.0683ZM23.7156 18.4304L18.0616 17.2986C17.9684 17.2798 17.8723 17.2821 17.78 17.3051C17.6879 17.3282 17.602 17.3714 17.5284 17.4317C17.4549 17.492 17.3957 17.5679 17.3551 17.6538C17.3145 17.7398 17.2934 17.8338 17.2934 17.9288V20.5003C17.2934 20.6691 17.3598 20.8312 17.4783 20.9516L18.5597 22.0494V23.4077L16.2293 22.4746C16.0763 22.4134 15.9055 22.4134 15.7525 22.4746L13.4221 23.4077V22.0522L14.5184 20.9548C14.578 20.8951 14.6253 20.8242 14.6576 20.7462C14.6899 20.6682 14.7065 20.5846 14.7065 20.5003V17.9288C14.7065 17.8338 14.6854 17.7398 14.6448 17.6538C14.6041 17.5679 14.5449 17.492 14.4714 17.4317C14.3979 17.3714 14.312 17.3282 14.2198 17.3051C14.1276 17.2821 14.0314 17.2798 13.9382 17.2986L8.28442 18.4304V17.0405L14.3515 14.004C14.4579 13.9507 14.5475 13.8689 14.6102 13.7677C14.6728 13.6664 14.7062 13.5498 14.7065 13.4307L14.7155 9.57208C14.7156 9.40325 14.7489 9.23609 14.8135 9.08015C14.8782 8.9242 14.9729 8.78252 15.0922 8.66321C15.2116 8.54389 15.3532 8.44928 15.5091 8.38476C15.6649 8.32024 15.832 8.28709 16.0007 8.28718C16.1693 8.28729 16.3363 8.32064 16.4921 8.38535C16.6479 8.45005 16.7895 8.54483 16.9087 8.66429C17.0279 8.78375 17.1224 8.92553 17.1868 9.08156C17.2513 9.23757 17.2844 9.40478 17.2843 9.57361L17.2935 13.4306C17.2937 13.5497 17.3271 13.6664 17.3898 13.7676C17.4524 13.8689 17.542 13.9507 17.6483 14.004L23.7156 17.0406V18.4304Z" fill="url(#paint0_linear_3410_9304)"/>
</g>
<defs>
<linearGradient id="paint0_linear_3410_9304" x1="23.54" y1="7" x2="12.8398" y2="18.2295" gradientUnits="userSpaceOnUse">
<stop stop-color="#3CAFEB"/>
<stop offset="1" stop-color="#AEB9EA"/>
</linearGradient>
<clipPath id="clip0_3410_9304">
<rect width="18" height="18" fill="white" transform="translate(7 7)"/>
</clipPath>
</defs>
</svg>
