<svg width="18" height="18" viewBox="0 0 18 18" fill="none" xmlns="http://www.w3.org/2000/svg">
<path d="M17.1722 8.81676L11.2667 5.86403L11.2587 2.50074C11.2589 1.8377 10.9957 1.20174 10.527 0.732758C10.0583 0.263778 9.42253 0.000196951 8.75949 1.10328e-07C8.09645 -0.00019673 7.46049 0.263007 6.99151 0.731709C6.52253 1.20041 6.25895 1.83622 6.25875 2.49926L6.25094 5.86403L0.345469 8.81676C0.241662 8.86867 0.154359 8.94846 0.0933422 9.04719C0.0323251 9.14592 3.94631e-06 9.25969 1.58031e-09 9.37575V11.8757C-6.57449e-06 11.9682 0.0205105 12.0596 0.0600715 12.1432C0.0996325 12.2267 0.157251 12.3005 0.228773 12.3591C0.300294 12.4178 0.383935 12.4598 0.473664 12.4822C0.563393 12.5046 0.656973 12.5068 0.747656 12.4886L6.25 11.3881V12.8668L5.18305 13.9338C5.12501 13.9918 5.07897 14.0607 5.04757 14.1366C5.01616 14.2124 5 14.2937 5 14.3758V16.8758C5 16.9779 5.02503 17.0785 5.0729 17.1687C5.12077 17.2589 5.19001 17.336 5.27458 17.3933C5.35914 17.4505 5.45645 17.4862 5.55799 17.4971C5.65953 17.5081 5.7622 17.494 5.85703 17.4561L8.75 16.2989L11.643 17.4561C11.7378 17.494 11.8405 17.5081 11.942 17.4971C12.0435 17.4862 12.1409 17.4505 12.2254 17.3933C12.31 17.336 12.3792 17.2589 12.4271 17.1687C12.475 17.0785 12.5 16.9779 12.5 16.8758V14.3758C12.5 14.2115 12.4354 14.0539 12.3201 13.9369L11.2677 12.8695V11.3881L16.77 12.4886C16.8607 12.5068 16.9543 12.5046 17.044 12.4822C17.1337 12.4598 17.2174 12.4178 17.2889 12.3591C17.3604 12.3005 17.418 12.2267 17.4576 12.1432C17.4971 12.0596 17.5177 11.9682 17.5177 11.8757V9.37575C17.5176 9.25969 17.4853 9.14592 17.4243 9.04719C17.3633 8.94846 17.276 8.86867 17.1722 8.81676ZM16.2677 11.1134L10.7652 10.0129C10.6745 9.99471 10.581 9.99691 10.4912 10.0193C10.4015 10.0417 10.3179 10.0837 10.2463 10.1424C10.1748 10.201 10.1172 10.2748 10.0776 10.3583C10.0381 10.4419 10.0176 10.5333 10.0176 10.6257V13.1258C10.0176 13.29 10.0822 13.4476 10.1975 13.5646L11.25 14.632V15.9526L8.98203 15.0454C8.83308 14.9859 8.66692 14.9859 8.51797 15.0454L6.25 15.9526V14.6347L7.31695 13.5677C7.37499 13.5097 7.42102 13.4408 7.45243 13.3649C7.48384 13.2891 7.5 13.2078 7.5 13.1258V10.6257C7.5 10.5333 7.47949 10.4419 7.43993 10.3583C7.40037 10.2748 7.34275 10.201 7.27123 10.1424C7.1997 10.0837 7.11606 10.0417 7.02633 10.0193C6.9366 9.99691 6.84302 9.99471 6.75234 10.0129L1.25 11.1134V9.762L7.15453 6.80973C7.2581 6.75794 7.34525 6.6784 7.40625 6.57997C7.46725 6.48154 7.4997 6.3681 7.5 6.25231L7.50875 2.50074C7.50885 2.33659 7.54127 2.17407 7.60418 2.02245C7.66709 1.87083 7.75925 1.73308 7.87539 1.61708C7.99153 1.50107 8.12938 1.40908 8.28108 1.34635C8.43277 1.28362 8.59534 1.25139 8.75949 1.25148C8.92364 1.25158 9.08617 1.28401 9.23779 1.34692C9.38941 1.40983 9.52715 1.50198 9.64316 1.61813C9.75916 1.73427 9.85115 1.87212 9.91388 2.02382C9.97661 2.17551 10.0088 2.33808 10.0087 2.50223L10.0177 6.25223C10.0179 6.36803 10.0504 6.48148 10.1114 6.57992C10.1723 6.67836 10.2595 6.75792 10.363 6.80973L16.2677 9.76208V11.1134Z" fill="url(#paint0_linear_2956_8619)"/>
<defs>
<linearGradient id="paint0_linear_2956_8619" x1="16.0968" y1="7.60496e-07" x2="5.69386" y2="10.9281" gradientUnits="userSpaceOnUse">
<stop stop-color="#3CAFEB"/>
<stop offset="1" stop-color="#AEB9EA"/>
</linearGradient>
</defs>
</svg>
