<svg width="32" height="32" viewBox="0 0 32 32" fill="none" xmlns="http://www.w3.org/2000/svg">
<path d="M12.3251 13.9219C12.3773 14.079 12.3651 14.2505 12.291 14.3986C12.2169 14.5468 12.0871 14.6594 11.9301 14.7118C11.7381 14.7726 11.5602 14.8706 11.4063 15.0004C11.2525 15.1302 11.1259 15.2892 11.0338 15.4681C10.8013 15.9031 10.6438 16.6218 10.7901 17.7918C10.8065 17.9543 10.7587 18.1166 10.657 18.2443C10.5553 18.3718 10.4077 18.4546 10.2457 18.4748C10.0838 18.4951 9.92037 18.4513 9.79037 18.3526C9.66037 18.2539 9.57413 18.1083 9.55006 17.9468C9.38381 16.6168 9.53756 15.6168 9.93131 14.8793C10.3313 14.1294 10.9401 13.7244 11.5338 13.5269C11.6117 13.5008 11.694 13.4904 11.7759 13.4961C11.8578 13.5018 11.9378 13.5237 12.0113 13.5604C12.0848 13.5971 12.1503 13.6479 12.2042 13.7099C12.258 13.7719 12.2991 13.844 12.3251 13.9219ZM18.4926 7.21187C18.6453 7.15592 18.7702 7.0426 18.8407 6.89601C18.9113 6.74941 18.9219 6.58108 18.8703 6.4268C18.8187 6.27251 18.709 6.14442 18.5645 6.06974C18.4199 5.99506 18.252 5.97968 18.0963 6.02687C16.9238 6.41687 16.1938 7.37937 15.7638 8.41062C15.7061 8.55001 15.6531 8.69134 15.6051 8.83437C15.3709 8.39079 15.0713 7.98499 14.7163 7.63062C14.2358 7.14913 13.662 6.771 13.03 6.5195C12.398 6.26799 11.7212 6.14841 11.0413 6.16812C10.3176 6.18812 9.73756 6.76812 9.71756 7.49187C9.69768 8.18083 9.82083 8.86643 10.0792 9.50541C10.3376 10.1444 10.7256 10.7229 11.2188 11.2044C10.1688 11.4318 9.21992 11.9913 8.51257 12.7999C7.80524 13.6086 7.37702 14.6234 7.29131 15.6943L7.28381 15.7868C7.11917 17.846 7.55833 19.9084 8.54756 21.7218L8.99631 22.5431C9.00881 22.5656 9.02131 22.5868 9.03631 22.6081L10.2863 24.3581C10.5695 24.755 10.9358 25.0853 11.3596 25.3263C11.7835 25.5673 12.2547 25.7129 12.7406 25.7533C13.2265 25.7936 13.7153 25.7276 14.173 25.5598C14.6308 25.3921 15.0465 25.1266 15.3913 24.7818C15.4442 24.7289 15.5071 24.6869 15.5763 24.6583C15.6454 24.6296 15.7196 24.6148 15.7944 24.6148C15.8693 24.6148 15.9434 24.6296 16.0126 24.6583C16.0817 24.6869 16.1447 24.7289 16.1976 24.7818C16.5422 25.1267 16.9579 25.3923 17.4156 25.5601C17.8733 25.7279 18.3621 25.7941 18.848 25.7538C19.3338 25.7136 19.8051 25.5681 20.229 25.3273C20.6529 25.0864 21.0192 24.7562 21.3026 24.3593L22.5526 22.6081C22.5672 22.5873 22.5806 22.5656 22.5926 22.5431L23.0413 21.7218C24.0301 19.9083 24.4688 17.8458 24.3038 15.7868L24.2976 15.6943C24.2422 15.0041 24.0442 14.3329 23.7158 13.7232C23.3875 13.1135 22.9361 12.5786 22.3903 12.1525C21.8443 11.7264 21.2159 11.4183 20.5447 11.2478C19.8737 11.0772 19.1743 11.048 18.4913 11.1619L16.4201 11.5069C16.4326 10.6556 16.5826 9.69687 16.9188 8.89062C17.2688 8.04687 17.7888 7.44687 18.4926 7.21187ZM14.1926 11.3444L14.0001 11.3131C13.266 11.1715 12.5915 10.8127 12.0638 10.2831C11.7026 9.92283 11.4191 9.49243 11.2305 9.01841C11.042 8.54438 10.9525 8.03678 10.9676 7.52687C10.9679 7.49813 10.9794 7.47066 10.9998 7.45033C11.0201 7.43001 11.0476 7.41844 11.0763 7.41812C11.5863 7.40323 12.094 7.49293 12.568 7.68168C13.042 7.87043 13.4724 8.15424 13.8326 8.51562C14.5913 9.27437 14.9576 10.2756 14.9288 11.2706C14.9288 11.2996 14.9174 11.3274 14.897 11.348C14.8767 11.3686 14.849 11.3803 14.8201 11.3806C14.6103 11.386 14.4003 11.3739 14.1926 11.3444ZM13.7826 12.5444L13.9988 12.5806L14.9726 12.7431C15.5167 12.8338 16.0722 12.8338 16.6163 12.7431L18.6963 12.3956C19.2087 12.3102 19.7332 12.3321 20.2367 12.46C20.7401 12.5879 21.2115 12.819 21.6209 13.1387C22.0303 13.4583 22.3689 13.8596 22.6152 14.3169C22.8614 14.7743 23.0099 15.2778 23.0513 15.7956L23.0588 15.8881C23.2042 17.7053 22.8168 19.5253 21.9438 21.1256L21.5138 21.9131L20.2851 23.6331C20.1073 23.8822 19.8775 24.0896 19.6115 24.2408C19.3456 24.392 19.0498 24.4835 18.7449 24.5088C18.44 24.5342 18.1332 24.4928 17.8459 24.3875C17.5586 24.2823 17.2977 24.1157 17.0813 23.8993C16.9122 23.7302 16.7116 23.596 16.4907 23.5044C16.2698 23.4128 16.0329 23.3658 15.7938 23.3658C15.5547 23.3658 15.3179 23.4128 15.0969 23.5044C14.876 23.596 14.6753 23.7302 14.5063 23.8993C14.2899 24.1155 14.0291 24.2818 13.7419 24.387C13.4548 24.4921 13.1481 24.5334 12.8434 24.5081C12.5386 24.4828 12.243 24.3914 11.9772 24.2403C11.7113 24.0892 11.4815 23.882 11.3038 23.6331L10.0751 21.9131L9.64506 21.1256C8.77209 19.5253 8.38462 17.7053 8.53006 15.8881L8.53756 15.7956C8.57896 15.2778 8.72748 14.7743 8.97372 14.3169C9.21994 13.8596 9.55851 13.4583 9.96795 13.1387C10.3774 12.819 10.8488 12.5879 11.3522 12.46C11.8557 12.3321 12.3802 12.3102 12.8926 12.3956L13.7826 12.5444Z" fill="url(#paint0_linear_3410_9302)"/>
<defs>
<linearGradient id="paint0_linear_3410_9302" x1="22.9517" y1="6" x2="11.2439" y2="16.6226" gradientUnits="userSpaceOnUse">
<stop stop-color="#3CAFEB"/>
<stop offset="1" stop-color="#AEB9EA"/>
</linearGradient>
</defs>
</svg>
