<svg width="20" height="20" viewBox="0 0 21 24" fill="none" xmlns="http://www.w3.org/2000/svg">
<path d="M6.09007 9.50624C6.15278 9.69482 6.13808 9.90057 6.04921 10.0783C5.96033 10.2561 5.80455 10.3913 5.61607 10.4542C5.38578 10.5271 5.17219 10.6447 4.9876 10.8005C4.80301 10.9562 4.65108 11.147 4.54057 11.3617C4.26157 11.8837 4.07257 12.7462 4.24807 14.1502C4.26775 14.3451 4.21045 14.5399 4.08839 14.6931C3.96634 14.8462 3.78922 14.9455 3.59489 14.9698C3.40057 14.9941 3.20445 14.9415 3.04845 14.8231C2.89245 14.7047 2.78895 14.5299 2.76007 14.3362C2.56057 12.7402 2.74507 11.5402 3.21757 10.6552C3.69757 9.75524 4.42807 9.26924 5.14057 9.03224C5.23403 9.00097 5.33275 8.98842 5.43107 8.99532C5.52939 9.00221 5.62538 9.02842 5.71356 9.07244C5.80175 9.11647 5.88039 9.17744 5.94499 9.25187C6.00959 9.32631 6.05889 9.41274 6.09007 9.50624V9.50624ZM13.4911 1.45424C13.6744 1.3871 13.8243 1.25112 13.9089 1.07521C13.9936 0.899291 14.0063 0.697301 13.9444 0.512155C13.8825 0.327009 13.7508 0.173299 13.5774 0.0836858C13.4039 -0.00592759 13.2024 -0.0243818 13.0156 0.0322443C11.6086 0.500244 10.7326 1.65524 10.2166 2.89274C10.1473 3.06001 10.0837 3.22961 10.0261 3.40124C9.74507 2.86895 9.38555 2.38199 8.95957 1.95674C8.38302 1.37895 7.69437 0.925204 6.93598 0.623394C6.17758 0.321583 5.36547 0.178092 4.54957 0.201744C3.68107 0.225744 2.98507 0.921744 2.96107 1.79024C2.93722 2.617 3.085 3.43972 3.39506 4.20649C3.70513 4.97327 4.17076 5.66745 4.76257 6.24524C3.50256 6.51818 2.3639 7.18951 1.51509 8.15989C0.666283 9.13026 0.152427 10.3481 0.0495691 11.6332L0.040569 11.7442C-0.157001 14.2152 0.369995 16.6901 1.55707 18.8662L2.09557 19.8517C2.11057 19.8787 2.12557 19.9042 2.14357 19.9297L3.64357 22.0297C3.98342 22.506 4.42294 22.9024 4.93155 23.1915C5.44017 23.4807 6.00567 23.6555 6.58871 23.7039C7.17175 23.7523 7.75833 23.6731 8.30766 23.4718C8.85698 23.2705 9.35585 22.9519 9.76957 22.5382C9.83309 22.4747 9.9085 22.4243 9.99151 22.3899C10.0745 22.3555 10.1635 22.3378 10.2533 22.3378C10.3432 22.3378 10.4321 22.3555 10.5151 22.3899C10.5981 22.4243 10.6736 22.4747 10.7371 22.5382C11.1507 22.952 11.6495 23.2707 12.1987 23.4721C12.748 23.6735 13.3345 23.7529 13.9176 23.7046C14.5006 23.6563 15.0661 23.4817 15.5748 23.1927C16.0835 22.9037 16.5231 22.5074 16.8631 22.0312L18.3631 19.9297C18.3807 19.9048 18.3967 19.8787 18.4111 19.8517L18.9496 18.8662C20.1361 16.69 20.6626 14.215 20.4646 11.7442L20.4571 11.6332C20.3907 10.8049 20.153 9.99942 19.759 9.26778C19.365 8.53614 18.8233 7.89431 18.1683 7.38298C17.5132 6.87165 16.7591 6.50195 15.9537 6.29732C15.1484 6.09269 14.3092 6.05759 13.4896 6.19424L11.0041 6.60824C11.0191 5.58674 11.1991 4.43624 11.6026 3.46874C12.0226 2.45624 12.6466 1.73624 13.4911 1.45424ZM8.33107 6.41324L8.10007 6.37574C7.21924 6.20581 6.40976 5.7752 5.77657 5.13974C5.34318 4.7074 5.00289 4.19091 4.77665 3.62209C4.55041 3.05326 4.44301 2.44414 4.46107 1.83224C4.46146 1.79775 4.47533 1.76479 4.49972 1.7404C4.52411 1.71601 4.55708 1.70213 4.59157 1.70174C5.20358 1.68388 5.81276 1.79152 6.38159 2.01802C6.95042 2.24452 7.46685 2.58509 7.89907 3.01874C8.80957 3.92924 9.24907 5.13074 9.21457 6.32474C9.21457 6.35949 9.20087 6.39284 9.17644 6.41756C9.15201 6.44227 9.11882 6.45635 9.08407 6.45674C8.8323 6.4632 8.58042 6.44865 8.33107 6.41324V6.41324ZM7.83907 7.85324L8.09857 7.89674L9.26707 8.09174C9.92007 8.20056 10.5866 8.20056 11.2396 8.09174L13.7356 7.67474C14.3504 7.5722 14.9798 7.5985 15.584 7.75199C16.1881 7.90548 16.7538 8.18281 17.2451 8.56639C17.7364 8.94998 18.1427 9.43146 18.4382 9.9803C18.7337 10.5292 18.9119 11.1334 18.9616 11.7547L18.9706 11.8657C19.1451 14.0463 18.6801 16.2304 17.6326 18.1507L17.1166 19.0957L15.6421 21.1597C15.4288 21.4586 15.153 21.7075 14.8338 21.889C14.5147 22.0704 14.1598 22.1802 13.7939 22.2106C13.428 22.241 13.0598 22.1913 12.7151 22.065C12.3703 21.9387 12.0572 21.7388 11.7976 21.4792C11.5947 21.2762 11.3539 21.1152 11.0888 21.0053C10.8237 20.8954 10.5395 20.8389 10.2526 20.8389C9.9656 20.8389 9.68144 20.8954 9.41634 21.0053C9.15124 21.1152 8.9104 21.2762 8.70757 21.4792C8.44792 21.7386 8.13492 21.9382 7.79031 22.0644C7.44571 22.1905 7.07776 22.2401 6.71206 22.2097C6.34635 22.1793 5.99165 22.0697 5.6726 21.8883C5.35356 21.707 5.07783 21.4584 4.86457 21.1597L3.39007 19.0957L2.87407 18.1507C1.82651 16.2304 1.36154 14.0463 1.53607 11.8657L1.54507 11.7547C1.59475 11.1334 1.77298 10.5292 2.06846 9.9803C2.36393 9.43146 2.77021 8.94998 3.26154 8.56639C3.75287 8.18281 4.31853 7.90548 4.92266 7.75199C5.5268 7.5985 6.15623 7.5722 6.77107 7.67474L7.83907 7.85324V7.85324Z" fill="url(#paint0_linear_3084_10776)"/>
<defs>
<linearGradient id="paint0_linear_3084_10776" x1="18.8421" y1="1.03068e-06" x2="4.79271" y2="12.7471" gradientUnits="userSpaceOnUse">
<stop stop-color="#3CAFEB"/>
<stop offset="1" stop-color="#AEB9EA"/>
</linearGradient>
</defs>
</svg>
