<svg width="32" height="32" viewBox="0 0 32 32" fill="none" xmlns="http://www.w3.org/2000/svg">
<path d="M9.55264 8.55251C11.187 6.91816 13.4036 6 15.7149 6C18.0263 6 20.2429 6.91816 21.8772 8.55251C23.5116 10.1869 24.4298 12.4035 24.4298 14.7148C24.4298 17.0261 23.5116 19.2428 21.8772 20.8771L20.6892 22.0521C19.8135 22.9109 18.6775 24.0158 17.2803 25.367C16.8604 25.773 16.2991 26 15.7149 26C15.1308 26 14.5695 25.773 14.1496 25.367L10.6556 21.9681C10.2162 21.5367 9.8489 21.1734 9.55264 20.8771C8.74336 20.0679 8.1014 19.1072 7.66341 18.0499C7.22543 16.9925 7 15.8593 7 14.7148C7 13.5704 7.22543 12.4371 7.66341 11.3798C8.1014 10.3224 8.74336 9.36173 9.55264 8.55251ZM20.8153 9.61342C19.4624 8.26072 17.6274 7.50088 15.7142 7.50107C13.801 7.50125 11.9663 8.26145 10.6135 9.61442C9.26085 10.9674 8.50101 12.8023 8.5012 14.7155C8.50138 16.6287 9.26158 18.4635 10.6146 19.8162L12.1018 21.2855C13.1292 22.2893 14.1594 23.2901 15.1925 24.2881C15.3325 24.4235 15.5197 24.4992 15.7144 24.4992C15.9092 24.4992 16.0964 24.4235 16.2364 24.2881L19.6333 20.9852C20.1037 20.5238 20.4971 20.1345 20.8143 19.8162C22.167 18.4635 22.9269 16.6288 22.9269 14.7158C22.9269 12.8028 22.167 10.9682 20.8143 9.61543L20.8153 9.61342ZM15.7149 11.9865C16.1095 11.9865 16.5002 12.0642 16.8647 12.2152C17.2293 12.3662 17.5605 12.5875 17.8395 12.8665C18.1185 13.1455 18.3398 13.4767 18.4908 13.8412C18.6418 14.2058 18.7195 14.5965 18.7195 14.991C18.7195 15.3856 18.6418 15.7763 18.4908 16.1409C18.3398 16.5054 18.1185 16.8366 17.8395 17.1156C17.5605 17.3946 17.2293 17.6159 16.8647 17.7669C16.5002 17.9179 16.1095 17.9956 15.7149 17.9956C14.9277 17.9813 14.1776 17.6585 13.6259 17.0966C13.0743 16.5348 12.7652 15.7789 12.7652 14.9916C12.7652 14.2042 13.0743 13.4483 13.6259 12.8865C14.1776 12.3247 14.9277 12.0018 15.7149 11.9875V11.9865ZM15.7149 13.4878C15.5175 13.4878 15.322 13.5266 15.1397 13.6022C14.9573 13.6777 14.7915 13.7885 14.652 13.9281C14.5124 14.0677 14.4016 14.2334 14.3261 14.4158C14.2505 14.5982 14.2116 14.7936 14.2116 14.991C14.2116 15.1885 14.2505 15.384 14.3261 15.5663C14.4016 15.7487 14.5124 15.9144 14.652 16.054C14.7915 16.1936 14.9573 16.3044 15.1397 16.3799C15.322 16.4555 15.5175 16.4943 15.7149 16.4943C16.1135 16.4943 16.4958 16.336 16.7776 16.0542C17.0594 15.7724 17.2177 15.3901 17.2177 14.9916C17.2177 14.593 17.0594 14.2107 16.7776 13.9289C16.4958 13.6471 16.1135 13.4888 15.7149 13.4888V13.4878Z" fill="url(#paint0_linear_3410_9307)"/>
<defs>
<linearGradient id="paint0_linear_3410_9307" x1="23.016" y1="6" x2="11.1603" y2="16.8433" gradientUnits="userSpaceOnUse">
<stop stop-color="#3CAFEB"/>
<stop offset="1" stop-color="#AEB9EA"/>
</linearGradient>
</defs>
</svg>
