<svg width="18" height="20" viewBox="0 0 18 20" fill="none" xmlns="http://www.w3.org/2000/svg">
<path d="M2.55264 2.55251C4.18698 0.918165 6.40363 0 8.71495 0C11.0263 0 13.2429 0.918165 14.8772 2.55251C16.5116 4.18686 17.4298 6.4035 17.4298 8.71482C17.4298 11.0261 16.5116 13.2428 14.8772 14.8771L13.6892 16.0521C12.8135 16.9109 11.6775 18.0158 10.2803 19.367C9.86036 19.773 9.29908 20 8.71495 20C8.13081 20 7.56953 19.773 7.1496 19.367L3.65559 15.9681C3.21621 15.5367 2.8489 15.1734 2.55264 14.8771C1.74336 14.0679 1.1014 13.1072 0.663412 12.0499C0.225428 10.9925 0 9.85927 0 8.71482C0 7.57036 0.225428 6.43711 0.663412 5.37978C1.1014 4.32244 1.74336 3.36173 2.55264 2.55251V2.55251ZM13.8153 3.61342C12.4624 2.26072 10.6274 1.50088 8.71424 1.50107C6.80103 1.50125 4.96626 2.26145 3.61355 3.61442C2.26085 4.9674 1.50101 6.80232 1.5012 8.71552C1.50138 10.6287 2.26158 12.4635 3.61455 13.8162L5.10183 15.2855C6.1292 16.2893 7.15942 17.2901 8.19249 18.2881C8.33249 18.4235 8.51965 18.4992 8.71444 18.4992C8.90924 18.4992 9.0964 18.4235 9.23639 18.2881L12.6333 14.9852C13.1037 14.5238 13.4971 14.1345 13.8143 13.8162C15.167 12.4635 15.9269 10.6288 15.9269 8.71582C15.9269 6.80281 15.167 4.96816 13.8143 3.61543L13.8153 3.61342ZM8.71495 5.98647C9.10951 5.98647 9.50022 6.06418 9.86475 6.21518C10.2293 6.36617 10.5605 6.58749 10.8395 6.86649C11.1185 7.14549 11.3398 7.47671 11.4908 7.84125C11.6418 8.20578 11.7195 8.59649 11.7195 8.99105C11.7195 9.38562 11.6418 9.77633 11.4908 10.1409C11.3398 10.5054 11.1185 10.8366 10.8395 11.1156C10.5605 11.3946 10.2293 11.6159 9.86475 11.7669C9.50022 11.9179 9.10951 11.9956 8.71495 11.9956C7.92771 11.9813 7.17757 11.6585 6.62592 11.0966C6.07427 10.5348 5.76519 9.77892 5.76519 8.99155C5.76519 8.20419 6.07427 7.44828 6.62592 6.88647C7.17757 6.32466 7.92771 6.00184 8.71495 5.98747V5.98647ZM8.71495 7.48776C8.51753 7.48776 8.32205 7.52664 8.13966 7.60219C7.95727 7.67774 7.79155 7.78847 7.65196 7.92806C7.51236 8.06766 7.40163 8.23338 7.32608 8.41577C7.25054 8.59816 7.21165 8.79364 7.21165 8.99105C7.21165 9.18847 7.25054 9.38395 7.32608 9.56634C7.40163 9.74873 7.51236 9.91445 7.65196 10.054C7.79155 10.1936 7.95727 10.3044 8.13966 10.3799C8.32205 10.4555 8.51753 10.4943 8.71495 10.4943C9.11351 10.4943 9.49575 10.336 9.77758 10.0542C10.0594 9.77236 10.2177 9.39012 10.2177 8.99155C10.2177 8.59299 10.0594 8.21075 9.77758 7.92892C9.49575 7.64709 9.11351 7.48876 8.71495 7.48876V7.48776Z" fill="url(#paint0_linear_3184_9017)"/>
<defs>
<linearGradient id="paint0_linear_3184_9017" x1="16.016" y1="8.69102e-07" x2="4.16031" y2="10.8433" gradientUnits="userSpaceOnUse">
<stop stop-color="#3CAFEB"/>
<stop offset="1" stop-color="#AEB9EA"/>
</linearGradient>
</defs>
</svg>
