<svg width="20" height="15" viewBox="0 0 20 15" fill="none" xmlns="http://www.w3.org/2000/svg">
<path d="M13.1499 5.0721L9.99336 4.2832L6.83679 5.0721C6.77138 5.08726 6.70965 5.1153 6.6552 5.15457C6.60075 5.19384 6.55466 5.24357 6.51962 5.30084C6.48459 5.35811 6.46131 5.42179 6.45114 5.48815C6.44098 5.55452 6.44413 5.62224 6.46041 5.68738C6.4767 5.75251 6.50579 5.81375 6.54599 5.86752C6.58619 5.9213 6.63669 5.96653 6.69456 6.00057C6.75242 6.03462 6.81649 6.05681 6.88302 6.06583C6.94955 6.07486 7.01721 6.07055 7.08205 6.05315L9.99336 5.32494L12.9052 6.05315C13.0344 6.08311 13.1702 6.06111 13.2833 5.99191C13.3964 5.92271 13.4778 5.81183 13.51 5.68317C13.5422 5.55451 13.5225 5.41837 13.4553 5.30407C13.388 5.18977 13.2785 5.10646 13.1504 5.0721H13.1499Z" fill="url(#paint0_linear_3192_9103)"/>
<path fill-rule="evenodd" clip-rule="evenodd" d="M2.40816 3.47314C2.40816 1.33606 8.05176 1.33606 8.05176 1.33606L8.5074 0.518848C8.59512 0.361532 8.72325 0.230495 8.87857 0.13928C9.03388 0.0480655 9.21074 -1.76518e-05 9.39086 4.86102e-09H10.6849C10.8651 -1.76518e-05 11.0419 0.0480655 11.1972 0.13928C11.3525 0.230495 11.4807 0.361532 11.5684 0.518848L12.0235 1.33606C12.0235 1.33606 17.5791 1.33606 17.5791 3.47264V3.55709L18.454 3.76948C18.9241 3.88352 19.3379 4.16227 19.6201 4.55519C19.9023 4.94811 20.0344 5.42917 19.9923 5.91112L19.7122 9.12231C19.6781 9.51229 19.5315 9.88399 19.2903 10.1923C19.0491 10.5007 18.7237 10.7324 18.3534 10.8594L14.7675 12.0887C12.6961 14.1596 10.2384 14.1596 10.2384 14.1596H9.74889C9.74889 14.1596 7.28866 14.1596 5.21631 12.0862L1.57932 10.6713C1.22998 10.5354 0.925263 10.3051 0.699168 10.0062C0.473073 9.70722 0.334491 9.35132 0.298885 8.97819L0.00911919 5.93337C-0.0376526 5.44236 0.0965888 4.95118 0.386595 4.55221C0.676601 4.15324 1.10239 3.87398 1.58387 3.76696L2.40816 3.58389V3.47314ZM2.43749 4.6135L1.80334 4.75408C1.5626 4.80759 1.34971 4.94723 1.2047 5.14671C1.0597 5.34619 0.992581 5.59178 1.01597 5.83729L1.30573 8.88211C1.32354 9.06867 1.39283 9.24662 1.50587 9.3961C1.61892 9.54558 1.77128 9.66071 1.94595 9.72865L4.0178 10.5342C3.19452 9.15367 2.57605 7.24667 2.43749 4.6135ZM15.9134 10.6273L18.0252 9.90362C18.2105 9.8401 18.3733 9.72414 18.494 9.56982C18.6146 9.41551 18.6879 9.22947 18.7048 9.03432L18.985 5.82313C19.006 5.5822 18.9399 5.34173 18.7988 5.14532C18.6577 4.94892 18.4508 4.80958 18.2158 4.75256L17.5508 4.59125C17.4118 7.29573 16.767 9.23559 15.9134 10.6273V10.6273ZM9.38833 1.01696C9.32512 1.12872 9.26696 1.23694 9.21133 1.3396C8.89123 1.9343 8.6672 2.34999 8.06087 2.34999C5.05651 2.34999 3.51564 3.14545 3.51564 3.43471C3.51564 11.7509 8.05379 13.0567 9.88341 13.1431C9.93516 13.1482 9.98719 13.1499 10.0392 13.1482H10.0847C10.1226 13.1482 10.159 13.1467 10.1949 13.1431C12.025 13.0572 16.5627 11.7509 16.5627 3.43471C16.5627 3.14545 15.0223 2.34999 12.0175 2.34999C11.4111 2.34999 11.1871 1.9343 10.867 1.3396C10.8114 1.23694 10.7537 1.12872 10.69 1.01696H9.38833V1.01696Z" fill="url(#paint1_linear_3192_9103)"/>
<defs>
<linearGradient id="paint0_linear_3192_9103" x1="12.9509" y1="4.2832" x2="12.4671" y2="6.29418" gradientUnits="userSpaceOnUse">
<stop stop-color="#3CAFEB"/>
<stop offset="1" stop-color="#AEB9EA"/>
</linearGradient>
<linearGradient id="paint1_linear_3192_9103" x1="18.3778" y1="6.15306e-07" x2="10.5639" y2="11.5829" gradientUnits="userSpaceOnUse">
<stop stop-color="#3CAFEB"/>
<stop offset="1" stop-color="#AEB9EA"/>
</linearGradient>
</defs>
</svg>
