<svg width="32" height="32" viewBox="0 0 32 32" fill="none" xmlns="http://www.w3.org/2000/svg">
<path fill-rule="evenodd" clip-rule="evenodd" d="M8.40816 12.4731C8.40816 10.3361 14.0518 10.3361 14.0518 10.3361L14.5074 9.51885C14.5951 9.36153 14.7232 9.2305 14.8786 9.13928C15.0339 9.04807 15.2107 8.99998 15.3909 9H16.6849C16.8651 8.99998 17.0419 9.04807 17.1972 9.13928C17.3525 9.2305 17.4807 9.36153 17.5684 9.51885L18.0235 10.3361C18.0235 10.3361 23.5791 10.3361 23.5791 12.4726V12.5571L24.454 12.7695C24.9241 12.8835 25.3379 13.1623 25.6201 13.5552C25.9023 13.9481 26.0344 14.4292 25.9923 14.9111L25.7122 18.1223C25.6781 18.5123 25.5315 18.884 25.2903 19.1923C25.0491 19.5007 24.7237 19.7324 24.3534 19.8594L20.7675 21.0887C18.6961 23.1596 16.2384 23.1596 16.2384 23.1596H15.7489C15.7489 23.1596 13.2887 23.1596 11.2163 21.0862L7.57932 19.6713C7.22998 19.5354 6.92526 19.3051 6.69917 19.0062C6.47307 18.7072 6.33449 18.3513 6.29888 17.9782L6.00912 14.9334C5.96235 14.4424 6.09659 13.9512 6.3866 13.5522C6.6766 13.1532 7.10239 12.874 7.58387 12.767L8.40816 12.5839V12.4731ZM8.43749 13.6135L7.80334 13.7541C7.5626 13.8076 7.34971 13.9472 7.2047 14.1467C7.0597 14.3462 6.99258 14.5918 7.01597 14.8373L7.30573 17.8821C7.32354 18.0687 7.39283 18.2466 7.50587 18.3961C7.61892 18.5456 7.77128 18.6607 7.94595 18.7287L10.0178 19.5342C9.19452 18.1537 8.57605 16.2467 8.43749 13.6135ZM21.9134 19.6273L24.0252 18.9036C24.2105 18.8401 24.3733 18.7241 24.494 18.5698C24.6146 18.4155 24.6879 18.2295 24.7048 18.0343L24.985 14.8231C25.006 14.5822 24.9399 14.3417 24.7988 14.1453C24.6577 13.9489 24.4508 13.8096 24.2158 13.7526L23.5508 13.5912C23.4118 16.2957 22.767 18.2356 21.9134 19.6273ZM15.3883 10.017C15.3251 10.1287 15.267 10.2369 15.2113 10.3396C14.8912 10.9343 14.6672 11.35 14.0609 11.35C11.0565 11.35 9.51564 12.1455 9.51564 12.4347C9.51564 20.7509 14.0538 22.0567 15.8834 22.1431C15.9352 22.1482 15.9872 22.1499 16.0392 22.1482H16.0847C16.1226 22.1482 16.159 22.1467 16.1949 22.1431C18.025 22.0572 22.5627 20.7509 22.5627 12.4347C22.5627 12.1455 21.0223 11.35 18.0175 11.35C17.4111 11.35 17.1871 10.9343 16.867 10.3396C16.8114 10.2369 16.7537 10.1287 16.69 10.017H15.3883Z" fill="url(#paint0_linear_3410_9303)"/>
<defs>
<linearGradient id="paint0_linear_3410_9303" x1="24.3778" y1="9" x2="16.5639" y2="20.5829" gradientUnits="userSpaceOnUse">
<stop stop-color="#3CAFEB"/>
<stop offset="1" stop-color="#AEB9EA"/>
</linearGradient>
</defs>
</svg>
