<svg width="20" height="20" viewBox="0 0 20 20" fill="none" xmlns="http://www.w3.org/2000/svg">
<path d="M7.0862 4.16935C6.75468 4.16935 6.43673 4.30104 6.20231 4.53547C5.96789 4.76989 5.8362 5.08783 5.8362 5.41935C5.8362 5.75087 5.96789 6.06881 6.20231 6.30323C6.43673 6.53765 6.75468 6.66935 7.0862 6.66935H12.9195C13.2511 6.66935 13.569 6.53765 13.8034 6.30323C14.0378 6.06881 14.1695 5.75087 14.1695 5.41935C14.1695 5.08783 14.0378 4.76989 13.8034 4.53547C13.569 4.30104 13.2511 4.16935 12.9195 4.16935H7.0862ZM16.6612 3.41268C16.6287 2.93869 16.4174 2.49472 16.0702 2.17049C15.7229 1.84626 15.2655 1.66596 14.7904 1.66602H5.20703L5.0787 1.67018C4.60471 1.7027 4.16073 1.91394 3.83651 2.26122C3.51228 2.6085 3.33197 3.06591 3.33203 3.54102V16.4577L3.3362 16.586C3.36872 17.06 3.57996 17.504 3.92724 17.8282C4.27451 18.1524 4.73193 18.3327 5.20703 18.3327H14.7904L14.9187 18.3285C15.3927 18.296 15.8367 18.0848 16.1609 17.7375C16.4851 17.3902 16.6654 16.9328 16.6654 16.4577V3.54102L16.6612 3.41268ZM5.20703 2.91602H14.7904L14.8754 2.92185C15.025 2.94239 15.1621 3.01642 15.2614 3.13024C15.3607 3.24406 15.4154 3.38998 15.4154 3.54102V16.4577L15.4095 16.5427C15.389 16.6923 15.315 16.8294 15.2011 16.9287C15.0873 17.028 14.9414 17.0827 14.7904 17.0827H5.20703L5.12203 17.0768C4.9724 17.0563 4.83527 16.9823 4.736 16.8685C4.63673 16.7546 4.58204 16.6087 4.58203 16.4577V3.54102L4.58786 3.45602C4.6084 3.30639 4.68243 3.16926 4.79626 3.06999C4.91008 2.97072 5.056 2.91602 5.20703 2.91602Z" fill="url(#paint0_linear_2956_8667)"/>
<defs>
<linearGradient id="paint0_linear_2956_8667" x1="15.5839" y1="1.66602" x2="5.81447" y2="9.86821" gradientUnits="userSpaceOnUse">
<stop stop-color="#3CAFEB"/>
<stop offset="1" stop-color="#AEB9EA"/>
</linearGradient>
</defs>
</svg>
