<svg width="19" height="21" viewBox="0 0 19 21" fill="none" xmlns="http://www.w3.org/2000/svg">
<path fill-rule="evenodd" clip-rule="evenodd" d="M1.66667 2.77908C1.51932 2.77908 1.37802 2.83761 1.27383 2.9418C1.16964 3.04599 1.11111 3.18729 1.11111 3.33464V18.3346C1.11111 18.482 1.16964 18.6233 1.27383 18.7275C1.37802 18.8317 1.51932 18.8902 1.66667 18.8902H17.2222C17.5278 18.8902 17.7778 18.6408 17.7778 18.3335V3.33575C17.7778 3.02797 17.5278 2.77908 17.2222 2.77908H15.5556V1.66797H17.2222C18.1433 1.66797 18.8889 2.4163 18.8889 3.33575V18.3335C18.8889 18.7757 18.7133 19.1997 18.4008 19.5124C18.0883 19.8252 17.6644 20.001 17.2222 20.0013H1.66667C1.22464 20.0013 0.800716 19.8257 0.488155 19.5132C0.175595 19.2006 0 18.7767 0 18.3346V3.33464C0 2.89261 0.175595 2.46869 0.488155 2.15612C0.800716 1.84356 1.22464 1.66797 1.66667 1.66797H4.44444V2.77908H1.66667ZM13.3333 2.77908H6.66667V1.66797H13.3333V2.77908Z" fill="url(#paint0_linear_2956_8621)"/>
<path fill-rule="evenodd" clip-rule="evenodd" d="M17.776 7.77908H1.10938V6.66797H17.776V7.77908Z" fill="url(#paint1_linear_2956_8621)"/>
<path d="M4.44141 0.555557C4.44141 0.408214 4.49994 0.266906 4.60412 0.162719C4.70831 0.0585319 4.84962 0 4.99696 0C5.1443 0 5.28561 0.0585319 5.3898 0.162719C5.49398 0.266906 5.55252 0.408214 5.55252 0.555557V3.33334C5.55252 3.48069 5.49398 3.62199 5.3898 3.72618C5.28561 3.83037 5.1443 3.8889 4.99696 3.8889C4.84962 3.8889 4.70831 3.83037 4.60412 3.72618C4.49994 3.62199 4.44141 3.48069 4.44141 3.33334V0.555557Z" fill="url(#paint2_linear_2956_8621)"/>
<path d="M13.332 0.555557C13.332 0.408214 13.3906 0.266906 13.4947 0.162719C13.5989 0.0585319 13.7402 0 13.8876 0C14.0349 0 14.1762 0.0585319 14.2804 0.162719C14.3846 0.266906 14.4431 0.408214 14.4431 0.555557V3.33334C14.4431 3.48069 14.3846 3.62199 14.2804 3.72618C14.1762 3.83037 14.0349 3.8889 13.8876 3.8889C13.7402 3.8889 13.5989 3.83037 13.4947 3.72618C13.3906 3.62199 13.332 3.48069 13.332 3.33334V0.555557Z" fill="url(#paint3_linear_2956_8621)"/>
<path fill-rule="evenodd" clip-rule="evenodd" d="M9.44748 11.5564C8.97599 11.5564 8.5238 11.7437 8.19041 12.0771C7.85701 12.4105 7.66971 12.8627 7.66971 13.3342C7.66971 13.8057 7.85701 14.2579 8.19041 14.5913C8.5238 14.9247 8.97599 15.112 9.44748 15.112C9.91898 15.112 10.3712 14.9247 10.7046 14.5913C11.038 14.2579 11.2253 13.8057 11.2253 13.3342C11.2253 12.8627 11.038 12.4105 10.7046 12.0771C10.3712 11.7437 9.91898 11.5564 9.44748 11.5564ZM6.55859 13.3342C6.55859 12.568 6.86296 11.8332 7.40473 11.2914C7.9465 10.7497 8.6813 10.4453 9.44748 10.4453C10.2137 10.4453 10.9485 10.7497 11.4902 11.2914C12.032 11.8332 12.3364 12.568 12.3364 13.3342C12.3364 14.1004 12.032 14.8352 11.4902 15.3769C10.9485 15.9187 10.2137 16.2231 9.44748 16.2231C8.6813 16.2231 7.9465 15.9187 7.40473 15.3769C6.86296 14.8352 6.55859 14.1004 6.55859 13.3342Z" fill="url(#paint4_linear_2956_8621)"/>
<path fill-rule="evenodd" clip-rule="evenodd" d="M8.5 9.44424C8.5 9.29689 8.55853 9.15558 8.66272 9.05139C8.76691 8.9472 8.90821 8.88867 9.05555 8.88867H9.83333C9.98067 8.88867 10.122 8.9472 10.2262 9.05139C10.3304 9.15558 10.3889 9.29689 10.3889 9.44424C10.3889 9.59158 10.3304 9.73289 10.2262 9.83708C10.122 9.94127 9.98067 9.9998 9.83333 9.9998H9.05555C8.90821 9.9998 8.76691 9.94127 8.66272 9.83708C8.55853 9.73289 8.5 9.59158 8.5 9.44424Z" fill="url(#paint5_linear_2956_8621)"/>
<path fill-rule="evenodd" clip-rule="evenodd" d="M8.89062 11.3895V9.83398H10.0017V11.3895H8.89062Z" fill="url(#paint6_linear_2956_8621)"/>
<path fill-rule="evenodd" clip-rule="evenodd" d="M11.3853 9.83063C11.4895 9.72648 11.6308 9.66797 11.7781 9.66797C11.9254 9.66797 12.0667 9.72648 12.1709 9.83063L12.9486 10.6084C13.0498 10.7132 13.1058 10.8535 13.1046 10.9992C13.1033 11.1449 13.0449 11.2842 12.9419 11.3872C12.8389 11.4902 12.6995 11.5487 12.5539 11.5499C12.4082 11.5512 12.2679 11.4952 12.1631 11.394L11.3853 10.6162C11.2812 10.512 11.2227 10.3707 11.2227 10.2234C11.2227 10.0761 11.2812 9.93481 11.3853 9.83063Z" fill="url(#paint7_linear_2956_8621)"/>
<path fill-rule="evenodd" clip-rule="evenodd" d="M10.6094 11.3854L11.776 10.2188L12.5616 11.0043L11.3949 12.171L10.6094 11.3854Z" fill="url(#paint8_linear_2956_8621)"/>
<path fill-rule="evenodd" clip-rule="evenodd" d="M13.3329 12.3887C13.4802 12.3887 13.6215 12.4472 13.7257 12.5514C13.8299 12.6556 13.8885 12.7969 13.8885 12.9442V13.722C13.8885 13.8694 13.8299 14.0107 13.7257 14.1149C13.6215 14.2191 13.4802 14.2776 13.3329 14.2776C13.1856 14.2776 13.0442 14.2191 12.9401 14.1149C12.8359 14.0107 12.7773 13.8694 12.7773 13.722V12.9442C12.7773 12.7969 12.8359 12.6556 12.9401 12.5514C13.0442 12.4472 13.1856 12.3887 13.3329 12.3887Z" fill="url(#paint9_linear_2956_8621)"/>
<path fill-rule="evenodd" clip-rule="evenodd" d="M11.2227 13.3329C11.2227 13.1856 11.2812 13.0443 11.3854 12.9401C11.4896 12.8359 11.6309 12.7773 11.7782 12.7773H13.3338C13.4811 12.7773 13.6224 12.8359 13.7266 12.9401C13.8308 13.0443 13.8893 13.1856 13.8893 13.3329C13.8893 13.4803 13.8308 13.6216 13.7266 13.7258C13.6224 13.8299 13.4811 13.8885 13.3338 13.8885H11.7782C11.6309 13.8885 11.4896 13.8299 11.3854 13.7258C11.2812 13.6216 11.2227 13.4803 11.2227 13.3329Z" fill="url(#paint10_linear_2956_8621)"/>
<path fill-rule="evenodd" clip-rule="evenodd" d="M13.3384 15.2759C13.4426 15.3801 13.5011 15.5214 13.5011 15.6687C13.5011 15.816 13.4426 15.9573 13.3384 16.0615L12.5606 16.8393C12.5094 16.8923 12.4481 16.9347 12.3803 16.9638C12.3125 16.9929 12.2396 17.0082 12.1659 17.0089C12.0921 17.0095 12.0189 16.9954 11.9507 16.9675C11.8824 16.9396 11.8204 16.8983 11.7682 16.8462C11.716 16.794 11.6748 16.732 11.6468 16.6637C11.6189 16.5954 11.6048 16.5223 11.6055 16.4485C11.6061 16.3747 11.6215 16.3018 11.6506 16.234C11.6797 16.1663 11.722 16.105 11.7751 16.0537L12.5529 15.2759C12.657 15.1718 12.7983 15.1133 12.9456 15.1133C13.0929 15.1133 13.2342 15.1718 13.3384 15.2759Z" fill="url(#paint11_linear_2956_8621)"/>
<path fill-rule="evenodd" clip-rule="evenodd" d="M11.7817 14.498L12.9483 15.6647L12.1628 16.4503L10.9961 15.2836L11.7817 14.498Z" fill="url(#paint12_linear_2956_8621)"/>
<path fill-rule="evenodd" clip-rule="evenodd" d="M8.5 17.2235C8.5 17.0762 8.55853 16.9349 8.66272 16.8307C8.76691 16.7265 8.90821 16.668 9.05555 16.668H9.83333C9.98067 16.668 10.122 16.7265 10.2262 16.8307C10.3304 16.9349 10.3889 17.0762 10.3889 17.2235C10.3889 17.3709 10.3304 17.5122 10.2262 17.6164C10.122 17.7206 9.98067 17.7791 9.83333 17.7791H9.05555C8.90821 17.7791 8.76691 17.7206 8.66272 17.6164C8.55853 17.5122 8.5 17.3709 8.5 17.2235Z" fill="url(#paint13_linear_2956_8621)"/>
<path fill-rule="evenodd" clip-rule="evenodd" d="M9.44618 15.1133C9.59352 15.1133 9.73483 15.1718 9.83902 15.276C9.9432 15.3802 10.0017 15.5215 10.0017 15.6688V17.2244C10.0017 17.3717 9.9432 17.513 9.83902 17.6172C9.73483 17.7214 9.59352 17.7799 9.44618 17.7799C9.29884 17.7799 9.15753 17.7214 9.05334 17.6172C8.94916 17.513 8.89062 17.3717 8.89062 17.2244V15.6688C8.89062 15.5215 8.94916 15.3802 9.05334 15.276C9.15753 15.1718 9.29884 15.1133 9.44618 15.1133Z" fill="url(#paint14_linear_2956_8621)"/>
<path fill-rule="evenodd" clip-rule="evenodd" d="M5.94 15.2759C6.04419 15.1718 6.18547 15.1133 6.33278 15.1133C6.48009 15.1133 6.62138 15.1718 6.72556 15.2759L7.50334 16.0537C7.60454 16.1585 7.66053 16.2988 7.65927 16.4445C7.658 16.5901 7.59957 16.7295 7.49657 16.8325C7.39356 16.9355 7.25423 16.9939 7.10856 16.9952C6.9629 16.9965 6.82256 16.9405 6.71778 16.8393L5.94 16.0615C5.83585 15.9573 5.77734 15.816 5.77734 15.6687C5.77734 15.5214 5.83585 15.3801 5.94 15.2759Z" fill="url(#paint15_linear_2956_8621)"/>
<path fill-rule="evenodd" clip-rule="evenodd" d="M8.28035 15.2836L7.11368 16.4503L6.32812 15.6647L7.49479 14.498L8.28035 15.2836Z" fill="url(#paint16_linear_2956_8621)"/>
<path fill-rule="evenodd" clip-rule="evenodd" d="M5.55556 12.3887C5.7029 12.3887 5.84421 12.4472 5.94839 12.5514C6.05258 12.6556 6.11111 12.7969 6.11111 12.9442V13.722C6.11111 13.8694 6.05258 14.0107 5.94839 14.1149C5.84421 14.2191 5.7029 14.2776 5.55556 14.2776C5.40821 14.2776 5.2669 14.2191 5.16272 14.1149C5.05853 14.0107 5 13.8694 5 13.722V12.9442C5 12.7969 5.05853 12.6556 5.16272 12.5514C5.2669 12.4472 5.40821 12.3887 5.55556 12.3887Z" fill="url(#paint17_linear_2956_8621)"/>
<path fill-rule="evenodd" clip-rule="evenodd" d="M5 13.3329C5 13.1856 5.05853 13.0443 5.16272 12.9401C5.2669 12.8359 5.40821 12.7773 5.55556 12.7773H7.11111C7.25845 12.7773 7.39976 12.8359 7.50395 12.9401C7.60813 13.0443 7.66667 13.1856 7.66667 13.3329C7.66667 13.4803 7.60813 13.6216 7.50395 13.7258C7.39976 13.8299 7.25845 13.8885 7.11111 13.8885H5.55556C5.40821 13.8885 5.2669 13.8299 5.16272 13.7258C5.05853 13.6216 5 13.4803 5 13.3329Z" fill="url(#paint18_linear_2956_8621)"/>
<path fill-rule="evenodd" clip-rule="evenodd" d="M7.50444 9.83063C7.60859 9.93481 7.6671 10.0761 7.6671 10.2234C7.6671 10.3707 7.60859 10.512 7.50444 10.6162L6.72666 11.394C6.62188 11.4952 6.48155 11.5512 6.33588 11.5499C6.19022 11.5487 6.05088 11.4902 5.94787 11.3872C5.84487 11.2842 5.78644 11.1449 5.78518 10.9992C5.78391 10.8535 5.83991 10.7132 5.94111 10.6084L6.71888 9.83063C6.82307 9.72648 6.96435 9.66797 7.11166 9.66797C7.25898 9.66797 7.40026 9.72648 7.50444 9.83063Z" fill="url(#paint19_linear_2956_8621)"/>
<path fill-rule="evenodd" clip-rule="evenodd" d="M7.49479 12.171L6.32812 11.0043L7.11368 10.2188L8.28035 11.3854L7.49479 12.171Z" fill="url(#paint20_linear_2956_8621)"/>
<defs>
<linearGradient id="paint0_linear_2956_8621" x1="17.3568" y1="1.66797" x2="6.47895" y2="13.4299" gradientUnits="userSpaceOnUse">
<stop stop-color="#3CAFEB"/>
<stop offset="1" stop-color="#AEB9EA"/>
</linearGradient>
<linearGradient id="paint1_linear_2956_8621" x1="16.4242" y1="6.66797" x2="16.3405" y2="7.98521" gradientUnits="userSpaceOnUse">
<stop stop-color="#3CAFEB"/>
<stop offset="1" stop-color="#AEB9EA"/>
</linearGradient>
<linearGradient id="paint2_linear_2956_8621" x1="5.46239" y1="1.68993e-07" x2="4.18891" y2="0.381851" gradientUnits="userSpaceOnUse">
<stop stop-color="#3CAFEB"/>
<stop offset="1" stop-color="#AEB9EA"/>
</linearGradient>
<linearGradient id="paint3_linear_2956_8621" x1="14.353" y1="1.68993e-07" x2="13.0795" y2="0.381852" gradientUnits="userSpaceOnUse">
<stop stop-color="#3CAFEB"/>
<stop offset="1" stop-color="#AEB9EA"/>
</linearGradient>
<linearGradient id="paint4_linear_2956_8621" x1="11.8677" y1="10.4453" x2="8.43311" y2="14.0499" gradientUnits="userSpaceOnUse">
<stop stop-color="#3CAFEB"/>
<stop offset="1" stop-color="#AEB9EA"/>
</linearGradient>
<linearGradient id="paint5_linear_2956_8621" x1="10.2357" y1="8.88867" x2="9.67158" y2="9.89506" gradientUnits="userSpaceOnUse">
<stop stop-color="#3CAFEB"/>
<stop offset="1" stop-color="#AEB9EA"/>
</linearGradient>
<linearGradient id="paint6_linear_2956_8621" x1="9.91161" y1="9.83398" x2="9.02298" y2="10.5001" gradientUnits="userSpaceOnUse">
<stop stop-color="#3CAFEB"/>
<stop offset="1" stop-color="#AEB9EA"/>
</linearGradient>
<linearGradient id="paint7_linear_2956_8621" x1="12.952" y1="9.66797" x2="11.8332" y2="10.842" gradientUnits="userSpaceOnUse">
<stop stop-color="#3CAFEB"/>
<stop offset="1" stop-color="#AEB9EA"/>
</linearGradient>
<linearGradient id="paint8_linear_2956_8621" x1="12.4032" y1="10.2188" x2="11.2427" y2="11.4367" gradientUnits="userSpaceOnUse">
<stop stop-color="#3CAFEB"/>
<stop offset="1" stop-color="#AEB9EA"/>
</linearGradient>
<linearGradient id="paint9_linear_2956_8621" x1="13.7983" y1="12.3887" x2="12.7933" y2="13.0091" gradientUnits="userSpaceOnUse">
<stop stop-color="#3CAFEB"/>
<stop offset="1" stop-color="#AEB9EA"/>
</linearGradient>
<linearGradient id="paint10_linear_2956_8621" x1="13.673" y1="12.7773" x2="13.2194" y2="13.9198" gradientUnits="userSpaceOnUse">
<stop stop-color="#3CAFEB"/>
<stop offset="1" stop-color="#AEB9EA"/>
</linearGradient>
<linearGradient id="paint11_linear_2956_8621" x1="13.3473" y1="15.1133" x2="12.2205" y2="16.2959" gradientUnits="userSpaceOnUse">
<stop stop-color="#3CAFEB"/>
<stop offset="1" stop-color="#AEB9EA"/>
</linearGradient>
<linearGradient id="paint12_linear_2956_8621" x1="12.79" y1="14.498" x2="11.6294" y2="15.716" gradientUnits="userSpaceOnUse">
<stop stop-color="#3CAFEB"/>
<stop offset="1" stop-color="#AEB9EA"/>
</linearGradient>
<linearGradient id="paint13_linear_2956_8621" x1="10.2357" y1="16.668" x2="9.67159" y2="17.6744" gradientUnits="userSpaceOnUse">
<stop stop-color="#3CAFEB"/>
<stop offset="1" stop-color="#AEB9EA"/>
</linearGradient>
<linearGradient id="paint14_linear_2956_8621" x1="9.91161" y1="15.1133" x2="8.74643" y2="15.6228" gradientUnits="userSpaceOnUse">
<stop stop-color="#3CAFEB"/>
<stop offset="1" stop-color="#AEB9EA"/>
</linearGradient>
<linearGradient id="paint15_linear_2956_8621" x1="7.50664" y1="15.1133" x2="6.38792" y2="16.2874" gradientUnits="userSpaceOnUse">
<stop stop-color="#3CAFEB"/>
<stop offset="1" stop-color="#AEB9EA"/>
</linearGradient>
<linearGradient id="paint16_linear_2956_8621" x1="8.122" y1="14.498" x2="6.96148" y2="15.716" gradientUnits="userSpaceOnUse">
<stop stop-color="#3CAFEB"/>
<stop offset="1" stop-color="#AEB9EA"/>
</linearGradient>
<linearGradient id="paint17_linear_2956_8621" x1="6.02099" y1="12.3887" x2="5.016" y2="13.0091" gradientUnits="userSpaceOnUse">
<stop stop-color="#3CAFEB"/>
<stop offset="1" stop-color="#AEB9EA"/>
</linearGradient>
<linearGradient id="paint18_linear_2956_8621" x1="7.45037" y1="12.7773" x2="6.99677" y2="13.9198" gradientUnits="userSpaceOnUse">
<stop stop-color="#3CAFEB"/>
<stop offset="1" stop-color="#AEB9EA"/>
</linearGradient>
<linearGradient id="paint19_linear_2956_8621" x1="7.51445" y1="9.66797" x2="6.3957" y2="10.842" gradientUnits="userSpaceOnUse">
<stop stop-color="#3CAFEB"/>
<stop offset="1" stop-color="#AEB9EA"/>
</linearGradient>
<linearGradient id="paint20_linear_2956_8621" x1="8.122" y1="10.2188" x2="6.96148" y2="11.4367" gradientUnits="userSpaceOnUse">
<stop stop-color="#3CAFEB"/>
<stop offset="1" stop-color="#AEB9EA"/>
</linearGradient>
</defs>
</svg>
