<svg width="18" height="18" viewBox="0 0 18 18" fill="none" xmlns="http://www.w3.org/2000/svg">
<path d="M8.99994 18C7.21991 18 5.47986 17.4721 3.99982 16.4832C2.51979 15.4943 1.36624 14.0886 0.685067 12.4441C0.00388835 10.7996 -0.17433 8.98996 0.172947 7.24413C0.520225 5.49831 1.3774 3.89467 2.63608 2.636C3.89476 1.37734 5.49841 0.520182 7.24424 0.172926C8.99007 -0.17433 10.7997 0.00391078 12.4442 0.685109C14.0887 1.36631 15.4943 2.51987 16.4833 3.99992C17.4722 5.47997 18 7.22003 18 9.00006C17.9973 11.3862 17.0482 13.6738 15.3609 15.361C13.6737 17.0482 11.3861 17.9973 8.99994 18V18ZM8.99994 1.16441C7.45022 1.16442 5.93529 1.62398 4.64675 2.48497C3.3582 3.34596 2.3539 4.56971 1.76085 6.00148C1.1678 7.43324 1.01263 9.00871 1.31497 10.5287C1.61731 12.0486 2.36358 13.4448 3.4594 14.5406C4.55523 15.6364 5.95139 16.3827 7.47134 16.685C8.99129 16.9874 10.5668 16.8322 11.9985 16.2392C13.4303 15.6461 14.654 14.6418 15.515 13.3533C16.376 12.0647 16.8356 10.5498 16.8356 9.00006C16.8332 6.92264 16.0069 4.93097 14.538 3.46201C13.069 1.99305 11.0774 1.16676 8.99994 1.16441V1.16441Z" fill="url(#paint0_linear_3145_9013)"/>
<path d="M12.2831 12.8659C12.2067 12.866 12.1309 12.851 12.0603 12.8217C11.9897 12.7924 11.9255 12.7495 11.8715 12.6953L8.41797 9.24203V4.0197C8.41797 3.86529 8.47931 3.71721 8.58849 3.60802C8.69768 3.49884 8.84576 3.4375 9.00017 3.4375C9.15458 3.4375 9.30267 3.49884 9.41185 3.60802C9.52104 3.71721 9.58238 3.86529 9.58238 4.0197V8.75966L12.6948 11.8721C12.7762 11.9535 12.8316 12.0572 12.8541 12.1701C12.8765 12.2831 12.865 12.4001 12.8209 12.5065C12.7769 12.6129 12.7023 12.7038 12.6066 12.7678C12.5108 12.8317 12.3983 12.8659 12.2831 12.8659V12.8659Z" fill="url(#paint1_linear_3145_9013)"/>
<defs>
<linearGradient id="paint0_linear_3145_9013" x1="16.54" y1="7.82192e-07" x2="5.8398" y2="11.2296" gradientUnits="userSpaceOnUse">
<stop stop-color="#3CAFEB"/>
<stop offset="1" stop-color="#AEB9EA"/>
</linearGradient>
<linearGradient id="paint1_linear_3145_9013" x1="12.5045" y1="3.4375" x2="8.04248" y2="5.64633" gradientUnits="userSpaceOnUse">
<stop stop-color="#3CAFEB"/>
<stop offset="1" stop-color="#AEB9EA"/>
</linearGradient>
</defs>
</svg>