<svg width="32" height="32" viewBox="0 0 32 32" fill="none" xmlns="http://www.w3.org/2000/svg">
<path d="M20.5001 7H10.5C9.83763 7.00204 9.20303 7.24693 8.73466 7.68123C8.26629 8.11554 8.0022 8.70398 8 9.31818V19.2091C8.0022 19.8233 8.26629 20.4118 8.73466 20.8461C9.20303 21.2803 9.83763 21.5252 10.5 21.5273H11.8333L10.4333 23.2582C10.3939 23.3068 10.3653 23.3623 10.349 23.4213C10.3327 23.4802 10.3291 23.5416 10.3384 23.6019C10.3476 23.6622 10.3696 23.7202 10.4031 23.7726C10.4366 23.8249 10.4808 23.8707 10.5333 23.9073C10.5859 23.9438 10.6456 23.9704 10.7092 23.9854C10.7729 24.0006 10.839 24.0039 10.904 23.9953C10.969 23.9867 11.0316 23.9664 11.0881 23.9353C11.1446 23.9042 11.1939 23.8632 11.2333 23.8145L13.0833 21.5273H17.9167L19.7666 23.8145C19.8462 23.9129 19.9647 23.9779 20.096 23.9953C20.2272 24.0127 20.3605 23.981 20.4667 23.9073C20.5728 23.8335 20.6429 23.7236 20.6617 23.6019C20.6804 23.4802 20.6462 23.3566 20.5667 23.2582L19.1667 21.5273H20.5001C21.1623 21.5252 21.797 21.2803 22.2654 20.8461C22.7337 20.4118 22.9978 19.8233 23 19.2091V9.31818C22.9978 8.70398 22.7337 8.11554 22.2654 7.68123C21.797 7.24693 21.1623 7.00204 20.5001 7ZM9 14.4182V11.0182H15V14.4182H9ZM16 11.0182H22V14.4182H16V11.0182ZM10.5 7.92727H20.5001C20.8972 7.9293 21.2774 8.0765 21.5583 8.3369C21.839 8.59731 21.9978 8.94991 22 9.31818V10.0909H9V9.31818C9.00219 8.94991 9.16093 8.59731 9.44176 8.3369C9.72259 8.0765 10.1028 7.9293 10.5 7.92727ZM20.5001 20.6H10.5C10.1028 20.5979 9.72259 20.4507 9.44176 20.1904C9.16093 19.93 9.00219 19.5774 9 19.2091V15.3454H22V19.2091C21.9978 19.5774 21.839 19.93 21.5583 20.1904C21.2774 20.4507 20.8972 20.5979 20.5001 20.6ZM12.6667 18.2818C12.6667 18.4347 12.6178 18.584 12.5262 18.7111C12.4347 18.8382 12.3045 18.9372 12.1522 18.9957C12 19.0542 11.8324 19.0695 11.6708 19.0397C11.5091 19.0098 11.3606 18.9362 11.2441 18.8282C11.1275 18.7201 11.0482 18.5824 11.016 18.4326C10.9839 18.2826 11.0004 18.1273 11.0634 17.9861C11.1265 17.8449 11.2333 17.7242 11.3704 17.6393C11.5074 17.5544 11.6685 17.5091 11.8333 17.5091C12.0543 17.5091 12.2663 17.5905 12.4226 17.7354C12.5789 17.8803 12.6667 18.0768 12.6667 18.2818ZM20 18.2818C20 18.4347 19.9511 18.584 19.8595 18.7111C19.768 18.8382 19.6379 18.9372 19.4855 18.9957C19.3333 19.0542 19.1658 19.0695 19.0041 19.0397C18.8425 19.0098 18.694 18.9362 18.5774 18.8282C18.4609 18.7201 18.3815 18.5824 18.3493 18.4326C18.3172 18.2826 18.3337 18.1273 18.3968 17.9861C18.4598 17.8449 18.5666 17.7242 18.7037 17.6393C18.8407 17.5544 19.0018 17.5091 19.1667 17.5091C19.3877 17.5091 19.5997 17.5905 19.7559 17.7354C19.9122 17.8803 20 18.0768 20 18.2818Z" fill="url(#paint0_linear_3410_9313)"/>
<defs>
<linearGradient id="paint0_linear_3410_9313" x1="21.7834" y1="7" x2="11.6956" y2="16.3413" gradientUnits="userSpaceOnUse">
<stop stop-color="#3CAFEB"/>
<stop offset="1" stop-color="#AEB9EA"/>
</linearGradient>
</defs>
</svg>
