<svg width="15" height="18" viewBox="0 0 15 18" fill="none" xmlns="http://www.w3.org/2000/svg">
<path d="M11.7188 0H2.34375C1.72278 0.00205961 1.12784 0.249651 0.688744 0.688744C0.249651 1.12784 0.00205961 1.72278 0 2.34375V12.3438C0.00205961 12.9647 0.249651 13.5597 0.688744 13.9988C1.12784 14.4378 1.72278 14.6854 2.34375 14.6875H3.59375L2.28125 16.4375C2.24432 16.4867 2.21744 16.5428 2.20217 16.6024C2.18689 16.662 2.18351 16.7241 2.19221 16.785C2.20092 16.846 2.22154 16.9046 2.2529 16.9576C2.28427 17.0105 2.32575 17.0568 2.375 17.0938C2.42425 17.1307 2.48028 17.1576 2.53992 17.1728C2.59955 17.1881 2.6616 17.1915 2.72254 17.1828C2.78348 17.1741 2.84211 17.1535 2.89508 17.1221C2.94804 17.0907 2.99432 17.0492 3.03125 17L4.76562 14.6875H9.29688L11.0312 17C11.1058 17.0995 11.2169 17.1652 11.34 17.1828C11.463 17.2004 11.588 17.1683 11.6875 17.0938C11.787 17.0192 11.8527 16.9081 11.8703 16.785C11.8879 16.662 11.8558 16.537 11.7813 16.4375L10.4688 14.6875H11.7188C12.3397 14.6854 12.9347 14.4378 13.3738 13.9988C13.8128 13.5597 14.0604 12.9647 14.0625 12.3438V2.34375C14.0604 1.72278 13.8128 1.12784 13.3738 0.688744C12.9347 0.249651 12.3397 0.00205961 11.7188 0V0ZM0.9375 7.5V4.0625H6.5625V7.5H0.9375ZM7.5 4.0625H13.125V7.5H7.5V4.0625ZM2.34375 0.9375H11.7188C12.0911 0.939551 12.4476 1.08837 12.7109 1.35165C12.9741 1.61493 13.1229 1.97142 13.125 2.34375V3.125H0.9375V2.34375C0.939551 1.97142 1.08837 1.61493 1.35165 1.35165C1.61493 1.08837 1.97142 0.939551 2.34375 0.9375V0.9375ZM11.7188 13.75H2.34375C1.97142 13.7479 1.61493 13.5991 1.35165 13.3359C1.08837 13.0726 0.939551 12.7161 0.9375 12.3438V8.4375H13.125V12.3438C13.1229 12.7161 12.9741 13.0726 12.7109 13.3359C12.4476 13.5991 12.0911 13.7479 11.7188 13.75ZM4.375 11.4062C4.375 11.5608 4.32918 11.7118 4.24334 11.8403C4.15749 11.9688 4.03548 12.0689 3.89272 12.128C3.74997 12.1872 3.59288 12.2026 3.44134 12.1725C3.28979 12.1423 3.15058 12.0679 3.04132 11.9587C2.93206 11.8494 2.85766 11.7102 2.82751 11.5587C2.79737 11.4071 2.81284 11.25 2.87197 11.1073C2.9311 10.9645 3.03123 10.8425 3.15971 10.7567C3.28819 10.6708 3.43923 10.625 3.59375 10.625C3.80095 10.625 3.99966 10.7073 4.14618 10.8538C4.29269 11.0003 4.375 11.199 4.375 11.4062ZM11.25 11.4062C11.25 11.5608 11.2042 11.7118 11.1183 11.8403C11.0325 11.9688 10.9105 12.0689 10.7677 12.128C10.625 12.1872 10.4679 12.2026 10.3163 12.1725C10.1648 12.1423 10.0256 12.0679 9.91632 11.9587C9.80706 11.8494 9.73266 11.7102 9.70251 11.5587C9.67237 11.4071 9.68784 11.25 9.74697 11.1073C9.8061 10.9645 9.90623 10.8425 10.0347 10.7567C10.1632 10.6708 10.3142 10.625 10.4688 10.625C10.676 10.625 10.8747 10.7073 11.0212 10.8538C11.1677 11.0003 11.25 11.199 11.25 11.4062Z" fill="url(#paint0_linear_3193_9191)"/>
<defs>
<linearGradient id="paint0_linear_3193_9191" x1="12.9219" y1="7.46885e-07" x2="2.81038" y2="8.68233" gradientUnits="userSpaceOnUse">
<stop stop-color="#3CAFEB"/>
<stop offset="1" stop-color="#AEB9EA"/>
</linearGradient>
</defs>
</svg>
