<svg width="17" height="16" viewBox="0 0 17 16" fill="none" xmlns="http://www.w3.org/2000/svg">
<path d="M16.4854 4.82482L11.7979 0.137322C11.7544 0.093786 11.7027 0.0592509 11.6458 0.035689C11.5889 0.0121272 11.528 0 11.4664 0C11.4048 0 11.3439 0.0121272 11.287 0.035689C11.2301 0.0592509 11.1785 0.093786 11.1349 0.137322L3.01282 8.25951L3.01243 8.2599L0.978677 10.2936C0.352041 10.9202 0 11.7701 0 12.6563C0 13.0951 0.0864282 13.5296 0.25435 13.935C0.422271 14.3404 0.668398 14.7088 0.978677 15.019C1.28896 15.3293 1.65731 15.5755 2.06271 15.7434C2.46811 15.9113 2.90261 15.9977 3.34141 15.9977C4.22761 15.9977 5.07751 15.6457 5.70415 15.019L11.7951 8.92811L11.7952 8.92787L14.5321 6.191L16.3021 5.601C16.3779 5.57574 16.446 5.53152 16.4999 5.47254C16.5538 5.41356 16.5918 5.34178 16.6101 5.26401C16.6285 5.18624 16.6267 5.10507 16.6049 5.0282C16.583 4.95134 16.5419 4.88133 16.4854 4.82482ZM5.04118 14.3561C4.58916 14.801 3.9796 15.0493 3.34533 15.0468C2.71107 15.0443 2.10349 14.7912 1.65499 14.3427C1.20649 13.8942 0.953419 13.2867 0.950919 12.6524C0.94842 12.0181 1.19669 11.4086 1.64165 10.9565L3.64907 8.94905C3.81821 8.82733 5.12149 7.97655 7.1943 9.01311C8.10266 9.46725 8.90258 9.62053 9.56899 9.62053C9.64211 9.62053 9.71297 9.61787 9.7829 9.61436L5.04118 14.3561ZM14.1307 5.33662C14.0616 5.35963 13.9989 5.39842 13.9474 5.4499L11.1588 8.2385C10.9897 8.3603 9.68633 9.21108 7.61352 8.17451C6.60571 7.67061 5.73165 7.53779 5.02508 7.57311L11.4664 1.1317L15.2862 4.95147L14.1307 5.33662Z" fill="url(#paint0_linear_2956_8620)"/>
<defs>
<linearGradient id="paint0_linear_2956_8620" x1="15.2744" y1="6.95183e-07" x2="5.78898" y2="10.3436" gradientUnits="userSpaceOnUse">
<stop stop-color="#3CAFEB"/>
<stop offset="1" stop-color="#AEB9EA"/>
</linearGradient>
</defs>
</svg>
