<svg width="16" height="16" viewBox="0 0 16 16" fill="none" xmlns="http://www.w3.org/2000/svg">
<path d="M10.4669 14.13C10.5573 14.5342 10.9582 14.7887 11.3624 14.6984C11.7667 14.6081 12.0212 14.2072 11.9308 13.8029L10.4669 14.13ZM4.40364 7.18897C3.98952 7.18016 3.64667 7.50873 3.63786 7.92285C3.62906 8.33697 3.95763 8.67983 4.37175 8.68863L4.40364 7.18897ZM11.9308 13.8029C11.3384 11.1513 11.1424 9.11172 11.1939 7.56954L9.69471 7.51949C9.63781 9.22392 9.85587 11.395 10.4669 14.13L11.9308 13.8029ZM11.1939 7.56954C11.2729 5.20204 11.9261 4.1282 12.4793 3.71346C13.0003 3.32282 13.5774 3.40413 13.9579 3.7064C14.1495 3.85854 14.2736 4.05455 14.3191 4.25589C14.3622 4.4471 14.3443 4.6836 14.1834 4.95658C13.8425 5.53458 12.8078 6.33388 10.3048 6.8076L10.5838 8.28143C13.2231 7.7819 14.8007 6.86276 15.4754 5.7185C15.8223 5.13035 15.913 4.50477 15.7823 3.92562C15.6538 3.35659 15.3216 2.87396 14.8909 2.53185C14.027 1.8456 12.6962 1.67598 11.5794 2.51334C10.4948 3.32661 9.78016 4.95972 9.69471 7.51949L11.1939 7.56954ZM10.3048 6.8076C8.83431 7.08591 6.90285 7.24213 4.40364 7.18897L4.37175 8.68863C6.94433 8.74335 8.9844 8.58413 10.5838 8.28143L10.3048 6.8076Z" fill="url(#paint0_linear_1597_2781)"/>
<path d="M0.799805 7.25C0.385591 7.25 0.0498047 7.58579 0.0498047 8C0.0498047 8.41421 0.385591 8.75 0.799805 8.75V7.25ZM2.7998 8.75C3.21402 8.75 3.5498 8.41421 3.5498 8C3.5498 7.58579 3.21402 7.25 2.7998 7.25V8.75ZM0.799805 8.75H2.7998V7.25H0.799805V8.75Z" fill="url(#paint1_linear_1597_2781)"/>
<defs>
<linearGradient id="paint0_linear_1597_2781" x1="6.74761" y1="4.96098" x2="14.6752" y2="10.7188" gradientUnits="userSpaceOnUse">
<stop stop-color="#3CAFEB"/>
<stop offset="1" stop-color="#AEB9EA"/>
</linearGradient>
<linearGradient id="paint1_linear_1597_2781" x1="1.24085" y1="8.20074" x2="1.91863" y2="9.23733" gradientUnits="userSpaceOnUse">
<stop stop-color="#3CAFEB"/>
<stop offset="1" stop-color="#AEB9EA"/>
</linearGradient>
</defs>
</svg>
