<svg width="431" height="500" viewBox="0 0 431 500" fill="none" xmlns="http://www.w3.org/2000/svg">
<path d="M278.814 258.576C254.313 273.803 223.221 273.508 199.013 257.819L105.914 197.481C67.8987 172.844 57.354 121.886 82.4696 84.1847V84.1847C109.33 43.8634 165.274 35.8369 202.388 66.9793L287.374 138.291C326.184 170.857 321.845 231.834 278.814 258.576V258.576Z" fill="url(#paint0_linear_1429_2415)"/>
<path d="M267.046 152.928C295.878 151.992 322.657 167.793 335.777 193.484L386.235 292.287C406.838 332.632 390.492 382.035 349.89 402.128V402.128C306.467 423.617 254.006 402.596 237.435 357.069L199.491 252.818C182.163 205.21 216.409 154.572 267.046 152.928V152.928Z" fill="url(#paint1_linear_1429_2415)"/>
<path d="M102.699 55.5247C131.531 54.5887 158.309 70.3901 171.429 96.0811L221.887 194.884C242.491 235.229 226.144 284.632 185.542 304.724V304.724C142.12 326.213 89.6582 305.193 73.0876 259.666L35.1434 155.415C17.8154 107.807 52.0616 57.1686 102.699 55.5247V55.5247Z" fill="url(#paint2_linear_1429_2415)"/>
<path d="M312.887 422.407C288.385 437.634 257.294 437.339 233.086 421.65L139.987 361.312C101.971 336.675 91.4263 285.717 116.542 248.016V248.016C143.403 207.694 199.346 199.668 236.46 230.81L321.446 302.122C360.257 334.688 355.918 395.665 312.887 422.407V422.407Z" fill="url(#paint3_linear_1429_2415)"/>
<defs>
<linearGradient id="paint0_linear_1429_2415" x1="315.781" y1="195.6" x2="139.429" y2="260.667" gradientUnits="userSpaceOnUse">
<stop stop-color="#41287B"/>
<stop offset="0.123" stop-color="#462779"/>
<stop offset="0.284" stop-color="#572775"/>
<stop offset="0.465" stop-color="#72266E"/>
<stop offset="0.663" stop-color="#982565"/>
<stop offset="0.87" stop-color="#C82459"/>
<stop offset="0.99" stop-color="#E72452"/>
</linearGradient>
<linearGradient id="paint1_linear_1429_2415" x1="378.135" y1="240.476" x2="216.422" y2="299.335" gradientUnits="userSpaceOnUse">
<stop stop-color="#3CAFEB"/>
<stop offset="1" stop-color="#621D7A"/>
</linearGradient>
<linearGradient id="paint2_linear_1429_2415" x1="213.787" y1="143.073" x2="52.0741" y2="201.932" gradientUnits="userSpaceOnUse">
<stop/>
<stop offset="1" stop-color="#556F75"/>
</linearGradient>
<linearGradient id="paint3_linear_1429_2415" x1="172.907" y1="402.132" x2="283.525" y2="270.303" gradientUnits="userSpaceOnUse">
<stop stop-color="#20002C"/>
<stop offset="1" stop-color="#CBB4D4"/>
</linearGradient>
</defs>
</svg>