<svg width="20" height="20" viewBox="0 0 20 20" fill="#fff" xmlns="http://www.w3.org/2000/svg">
    <path d="M14.247 0a3.75 3.75 0 0 1 3.75 3.75V6h-.683a3.855 3.855 0 0 0-.31 0H1.5v8.247a2.25 2.25 0 0 0 2.25 2.25h2.694l-.375 1.5H3.75A3.75 3.75 0 0 1 0 14.247V3.75A3.75 3.75 0 0 1 3.75 0h10.497zm0 1.5H3.75A2.25 2.25 0 0 0 1.5 3.75v.75h14.997v-.75a2.25 2.25 0 0 0-2.25-2.25zm2.79 5.998a2.34 2.34 0 0 1 1.777 3.992l-6.431 6.432a4.164 4.164 0 0 1-1.935 1.095l-1.816.454a.916.916 0 0 1-1.11-1.108l.455-1.815.013-.051a4.154 4.154 0 0 1 1.083-1.884l6.431-6.432a2.33 2.33 0 0 1 1.534-.682h-.001z"
          />
</svg>
