<svg width="20" height="16" viewBox="0 0 20 16" fill="url(#paint0_linear)" xmlns="http://www.w3.org/2000/svg">
    <path d="M6.75 9.5a3.251 3.251 0 0 1 3.163 2.498L19.25 12a.75.75 0 0 1 .102 1.493l-.102.007H9.913a3.25 3.25 0 0 1-6.326 0H.75a.75.75 0 0 1-.102-1.493L.75 12h2.837A3.251 3.251 0 0 1 6.75 9.5zm0 1.5a1.75 1.75 0 0 0-1.652 1.172l-.021.063-.04.148c-.057.27-.05.549.02.815l.04.13.026.069a1.75 1.75 0 0 0 3.28-.069l.04-.13-.018.06a1.75 1.75 0 0 0 .048-.815l-.03-.137-.02-.07-.047-.134A1.75 1.75 0 0 0 6.75 11zm6.5-11a3.251 3.251 0 0 1 3.163 2.5h2.837a.75.75 0 0 1 .102 1.493L19.25 4h-2.837a3.251 3.251 0 0 1-6.326 0H.75a.75.75 0 0 1-.102-1.493L.75 2.5l9.337-.002A3.25 3.25 0 0 1 13.25 0zm0 1.5a1.75 1.75 0 0 0-1.652 1.173l-.021.062-.038.148c-.058.27-.051.549.019.815l.04.13.025.069a1.75 1.75 0 0 0 3.28-.068l.04-.131-.018.06c.08-.264.096-.543.048-.815l-.03-.137-.02-.07-.047-.134A1.75 1.75 0 0 0 13.25 1.5z"
          />
    <defs>
        <linearGradient id="paint0_linear" x1="18.377" y1="0" x2="9.195" y2="12.045" gradientUnits="userSpaceOnUse">
            <stop stop-color="#3CAFEB"/>
            <stop offset="1" stop-color="#AEB9EA"/>
        </linearGradient>
    </defs>
</svg>
