<svg width="30" height="30" viewBox="0 0 30 30" fill="url(#paint0_linear)" xmlns="http://www.w3.org/2000/svg">
    <path d="M13.188 3.166a2.812 2.812 0 0 1 3.624 0l8.438 7.115c.634.535 1 1.321 1 2.15v12.254a2.188 2.188 0 0 1-2.188 2.187h-4.375a2.188 2.188 0 0 1-2.187-2.187V17.81a.313.313 0 0 0-.313-.313h-4.375a.313.313 0 0 0-.312.313v6.875a2.188 2.188 0 0 1-2.188 2.187H5.939a2.188 2.188 0 0 1-2.188-2.187V12.43c0-.829.366-1.615 1-2.15l8.438-7.115zM15.604 4.6a.937.937 0 0 0-1.208 0L5.96 11.713a.938.938 0 0 0-.334.717v12.253c0 .173.14.313.313.313h4.375a.313.313 0 0 0 .312-.313v-6.875c0-1.208.98-2.187 2.188-2.187h4.374c1.208 0 2.188.979 2.188 2.187v6.875c0 .173.14.313.313.313h4.375a.313.313 0 0 0 .312-.313V12.431a.937.937 0 0 0-.334-.716L15.604 4.6z"
    />
    <defs>
        <linearGradient id="paint0_linear" x1="24.425" y1="2.504" x2="9.929" y2="16.55" gradientUnits="userSpaceOnUse">
            <stop stop-color="var(--color-primary)"/>
            <stop offset="1" stop-color="var(--color-purple)"/>
        </linearGradient>
    </defs>
</svg>
