<svg width="25" height="30" viewBox="0 0 25 30" fill="url(#paint0_linear)" xmlns="http://www.w3.org/2000/svg">
    <path d="M12.064 6.025a7.125 7.125 0 1 0 .503-.018h-.015a2.024 2.024 0 0 0-.49.018h.002zM9.631 8.778c-.339 1.015-.552 2.259-.61 3.597H7.37a5.25 5.25 0 0 1 2.26-3.597zm-.56 5.847c.077.973.268 1.935.568 2.865a5.26 5.26 0 0 1-2.108-2.865h1.54zm5.948 3.15.005-.012c.33-.88.56-1.96.664-3.138h1.914a5.265 5.265 0 0 1-2.583 3.15zm-1.591-3.15c-.098.927-.28 1.73-.51 2.347-.177.47-.36.771-.504.935a1.531 1.531 0 0 1-.035.037 1.215 1.215 0 0 1-.034-.037c-.146-.165-.327-.465-.503-.935-.23-.615-.414-1.42-.511-2.347h2.097zm.058-2.25h-2.214c.063-1.242.278-2.32.57-3.098.176-.47.357-.77.503-.934.01-.013.022-.026.034-.038l.035.038c.145.165.327.465.502.934.293.777.507 1.856.57 3.098zm2.252 0c-.065-1.467-.315-2.82-.713-3.882a5.254 5.254 0 0 1 2.738 3.882h-2.025zm-3.273-4.14-.006.003.006-.005v.002zm-.17 0 .005.003a.022.022 0 0 0-.006-.005l.001.002z"
          />
    <path d="M3.75 0A3.75 3.75 0 0 0 0 3.75v22.5A3.75 3.75 0 0 0 3.75 30h19.875a1.125 1.125 0 1 0 0-2.25H3.75a1.5 1.5 0 0 1-1.5-1.5h21.375a1.125 1.125 0 0 0 1.125-1.125V3.75A3.75 3.75 0 0 0 21 0H3.75zM22.5 3.75V24H2.25V3.75a1.5 1.5 0 0 1 1.5-1.5H21a1.5 1.5 0 0 1 1.5 1.5z"
          />
    <defs>
        <linearGradient id="paint0_linear" x1="18.54" y1="6" x2="10.064" y2="14.89" gradientUnits="userSpaceOnUse">
            <stop stop-color="var(--color-primary)"/>
            <stop offset="1" stop-color="var(--color-purple)"/>
        </linearGradient>
    </defs>
</svg>
