<svg width="30" height="30" viewBox="0 0 30 30" fill="url(#paint0_linear)" xmlns="http://www.w3.org/2000/svg">
    <path d="m11.836 12.054-.878-7.342-.002-.092c0-1.111.9-2.013 2.012-2.013 1.003 0 1.932.525 2.472 1.42l.108.2 3.682 7.613 4.946-.146a3.25 3.25 0 0 1 3.34 3.162l.001.083a3.25 3.25 0 0 1-3.275 3.246l-4.954-.145-3.74 7.735a2.867 2.867 0 0 1-2.58 1.619c-1.112 0-2.012-.9-2.012-2.04l.009-.147.883-7.385-2.665-.078-.337.92a2.432 2.432 0 0 1-2.284 1.597 1.983 1.983 0 0 1-1.982-1.984v-.95l-.193-.04a2.4 2.4 0 0 1 0-4.697l.194-.04v-.95c0-1.004.746-1.844 1.792-1.974l.19-.01c.93 0 1.778.533 2.205 1.409l.08.187.337.92 2.65-.077v-.001zm1.132-7.572c-.075 0-.136.062-.137.11l1.109 9.277-6.05.176-.785-2.144-.04-.099c-.094-.19-.288-.312-.443-.313l-.072.002a.107.107 0 0 0-.094.106l.001 2.475-1.687.353a.524.524 0 0 0 0 1.026l1.687.351v2.475c0 .06.048.108.106.108a.558.558 0 0 0 .524-.366l.8-2.19 6.068.177-1.122 9.339v.037c0 .075.06.135.135.135a.99.99 0 0 0 .893-.56l4.269-8.828 6.142.18c.758 0 1.371-.614 1.371-1.358v-.054a1.37 1.37 0 0 0-1.412-1.33l-6.16.18-4.189-8.665-.066-.123a.991.991 0 0 0-.848-.477z"
    />
    <defs>
        <linearGradient id="paint0_linear" x1="25.486" y1="2.607" x2="10.76" y2="18.219" gradientUnits="userSpaceOnUse">
            <stop stop-color="var(--color-primary)"/>
            <stop offset="1" stop-color="var(--color-purple)"/>
        </linearGradient>
    </defs>
</svg>
