<svg width="30" height="30" viewBox="0 0 30 30" fill="url(#paint0_linear)" xmlns="http://www.w3.org/2000/svg">
    <path d="M7.07031 0.833333C7.07031 0.61232 7.16327 0.400358 7.32875 0.244078C7.49422 0.0877975 7.71865 0 7.95267 0C8.18668 0 8.41111 0.0877975 8.57658 0.244078C8.74206 0.400358 8.83502 0.61232 8.83502 0.833333V5.83333C8.83502 6.05435 8.74206 6.26631 8.57658 6.42259C8.41111 6.57887 8.18668 6.66667 7.95267 6.66667C7.71865 6.66667 7.49422 6.57887 7.32875 6.42259C7.16327 6.26631 7.07031 6.05435 7.07031 5.83333V0.833333Z" />
<path d="M21.1719 0.833333C21.1719 0.61232 21.2648 0.400358 21.4303 0.244078C21.5958 0.0877975 21.8202 0 22.0542 0C22.2882 0 22.5127 0.0877975 22.6781 0.244078C22.8436 0.400358 22.9366 0.61232 22.9366 0.833333V5.83333C22.9366 6.05435 22.8436 6.26631 22.6781 6.42259C22.5127 6.57887 22.2882 6.66667 22.0542 6.66667C21.8202 6.66667 21.5958 6.57887 21.4303 6.42259C21.2648 6.26631 21.1719 6.05435 21.1719 5.83333V0.833333Z" />
<path fill-rule="evenodd" clip-rule="evenodd" d="M28.2353 26.6652V8.006C28.2355 7.99708 28.2349 7.98816 28.2335 7.97933L28.2326 7.97517C28.2231 7.96735 28.212 7.9614 28.2 7.95767C28.188 7.95307 28.1751 7.9508 28.1621 7.951L28.1585 7.9535C27.8219 8.33322 27.4011 8.63854 26.9259 8.8479C26.4507 9.05726 25.9326 9.16557 25.4082 9.16517H7.63941C6.58745 9.16524 5.55931 8.86932 4.68618 8.31517L4.515 8.20683C3.34147 7.461 1.76471 8.25433 1.76471 9.5885V26.6652C1.76471 27.1072 1.95063 27.5311 2.28158 27.8437C2.61252 28.1562 3.06138 28.3318 3.52941 28.3318H26.4706C26.9386 28.3318 27.3875 28.1562 27.7184 27.8437C28.0494 27.5311 28.2353 27.1072 28.2353 26.6652ZM5.49882 6.8235C3.15441 5.3335 0 6.92017 0 9.5885V26.6652C0 27.5492 0.371848 28.3971 1.03374 29.0222C1.69563 29.6473 2.59335 29.9985 3.52941 29.9985H26.4706C27.4066 29.9985 28.3044 29.6473 28.9663 29.0222C29.6282 28.3971 30 27.5492 30 26.6652V8.006C30 6.40767 27.8912 5.67517 26.7944 6.8935C26.4494 7.27683 25.9421 7.4985 25.4091 7.4985H7.63853C6.93702 7.49866 6.25137 7.30137 5.66912 6.93183L5.49882 6.8235V6.8235Z" />
<path fill-rule="evenodd" clip-rule="evenodd" d="M22.9412 3.33203H10.5882V5.83203C10.5882 6.05304 10.4953 6.26501 10.3298 6.42129C10.1643 6.57757 9.9399 6.66536 9.70588 6.66536C9.47187 6.66536 9.24744 6.57757 9.08196 6.42129C8.91649 6.26501 8.82353 6.05304 8.82353 5.83203V3.33203H3.52941C2.59335 3.33203 1.69563 3.68322 1.03374 4.30834C0.371848 4.93346 0 5.78131 0 6.66536V11.6654H30V6.66536C30 5.78131 29.6282 4.93346 28.9663 4.30834C28.3044 3.68322 27.4066 3.33203 26.4706 3.33203H24.7059V5.83203C24.7059 6.05304 24.6129 6.26501 24.4474 6.42129C24.282 6.57757 24.0575 6.66536 23.8235 6.66536C23.5895 6.66536 23.3651 6.57757 23.1996 6.42129C23.0341 6.26501 22.9412 6.05304 22.9412 5.83203V3.33203Z" />
<path fill-rule="evenodd" clip-rule="evenodd" d="M21.1765 4.9987H12.3529V5.83203C12.3529 6.49507 12.0741 7.13096 11.5776 7.5998C11.0812 8.06864 10.4079 8.33203 9.70588 8.33203C9.00384 8.33203 8.33055 8.06864 7.83413 7.5998C7.33771 7.13096 7.05882 6.49507 7.05882 5.83203V4.9987H3.52941C3.06138 4.9987 2.61252 5.17429 2.28158 5.48685C1.95063 5.79941 1.76471 6.22334 1.76471 6.66536V9.9987H28.2353V6.66536C28.2353 6.22334 28.0494 5.79941 27.7184 5.48685C27.3875 5.17429 26.9386 4.9987 26.4706 4.9987V5.83203C26.4706 6.49507 26.1917 7.13096 25.6953 7.5998C25.1989 8.06864 24.5256 8.33203 23.8235 8.33203C23.1215 8.33203 22.4482 8.06864 21.9518 7.5998C21.4554 7.13096 21.1765 6.49507 21.1765 5.83203V4.9987ZM10.5882 3.33203V5.83203C10.5882 6.05304 10.4953 6.26501 10.3298 6.42129C10.1643 6.57757 9.9399 6.66536 9.70588 6.66536C9.47187 6.66536 9.24744 6.57757 9.08196 6.42129C8.91649 6.26501 8.82353 6.05304 8.82353 5.83203V3.33203H3.52941C2.59335 3.33203 1.69563 3.68322 1.03374 4.30834C0.371848 4.93346 0 5.78131 0 6.66536V11.6654H30V6.66536C30 5.78131 29.6282 4.93346 28.9663 4.30834C28.3044 3.68322 27.4066 3.33203 26.4706 3.33203H24.7059V5.83203C24.7059 6.05304 24.6129 6.26501 24.4474 6.42129C24.282 6.57757 24.0575 6.66536 23.8235 6.66536C23.5895 6.66536 23.3651 6.57757 23.1996 6.42129C23.0341 6.26501 22.9412 6.05304 22.9412 5.83203V3.33203H10.5882Z" />
<path fill-rule="evenodd" clip-rule="evenodd" d="M13.5156 14.1654C13.5156 13.9444 13.6086 13.7324 13.7741 13.5761C13.9395 13.4198 14.164 13.332 14.398 13.332H15.6333C15.8673 13.332 16.0917 13.4198 16.2572 13.5761C16.4227 13.7324 16.5156 13.9444 16.5156 14.1654C16.5156 14.3864 16.4227 14.5983 16.2572 14.7546C16.0917 14.9109 15.8673 14.9987 15.6333 14.9987H14.398C14.164 14.9987 13.9395 14.9109 13.7741 14.7546C13.6086 14.5983 13.5156 14.3864 13.5156 14.1654Z" />
<path fill-rule="evenodd" clip-rule="evenodd" d="M14.1016 17.0833V14.75H15.8663V17.0833H14.1016Z" />
<path fill-rule="evenodd" clip-rule="evenodd" d="M18.0708 14.744C18.2363 14.5878 18.4607 14.5 18.6947 14.5C18.9286 14.5 19.153 14.5878 19.3185 14.744L20.5538 15.9107C20.7145 16.0678 20.8034 16.2783 20.8014 16.4968C20.7994 16.7153 20.7066 16.9243 20.543 17.0788C20.3794 17.2333 20.1581 17.321 19.9268 17.3229C19.6954 17.3248 19.4725 17.2408 19.3061 17.089L18.0708 15.9223C17.9054 15.766 17.8125 15.5541 17.8125 15.3332C17.8125 15.1122 17.9054 14.9003 18.0708 14.744Z" />
<path fill-rule="evenodd" clip-rule="evenodd" d="M16.8359 17.0781L18.6889 15.3281L19.9365 16.5065L18.0836 18.2565L16.8359 17.0781Z" />
<path fill-rule="evenodd" clip-rule="evenodd" d="M21.1558 18.582C21.3898 18.582 21.6142 18.6698 21.7797 18.8261C21.9452 18.9824 22.0381 19.1944 22.0381 19.4154V20.582C22.0381 20.803 21.9452 21.015 21.7797 21.1713C21.6142 21.3276 21.3898 21.4154 21.1558 21.4154C20.9218 21.4154 20.6973 21.3276 20.5319 21.1713C20.3664 21.015 20.2734 20.803 20.2734 20.582V19.4154C20.2734 19.1944 20.3664 18.9824 20.5319 18.8261C20.6973 18.6698 20.9218 18.582 21.1558 18.582Z" />
<path fill-rule="evenodd" clip-rule="evenodd" d="M17.8125 20.0013C17.8125 19.7803 17.9055 19.5683 18.0709 19.412C18.2364 19.2558 18.4608 19.168 18.6949 19.168H21.1654C21.3995 19.168 21.6239 19.2558 21.7894 19.412C21.9548 19.5683 22.0478 19.7803 22.0478 20.0013C22.0478 20.2223 21.9548 20.4343 21.7894 20.5906C21.6239 20.7468 21.3995 20.8346 21.1654 20.8346H18.6949C18.4608 20.8346 18.2364 20.7468 18.0709 20.5906C17.9055 20.4343 17.8125 20.2223 17.8125 20.0013Z" />
<path fill-rule="evenodd" clip-rule="evenodd" d="M21.1898 22.912C21.3552 23.0682 21.4482 23.2802 21.4482 23.5011C21.4482 23.7221 21.3552 23.934 21.1898 24.0903L19.9545 25.257C19.8731 25.3365 19.7758 25.4 19.6681 25.4437C19.5605 25.4874 19.4447 25.5104 19.3275 25.5113C19.2104 25.5123 19.0942 25.4912 18.9857 25.4493C18.8773 25.4074 18.7788 25.3455 18.6959 25.2673C18.6131 25.189 18.5476 25.096 18.5032 24.9936C18.4588 24.8912 18.4365 24.7814 18.4375 24.6708C18.4386 24.5601 18.4629 24.4508 18.5091 24.3491C18.5554 24.2474 18.6226 24.1555 18.7069 24.0786L19.9422 22.912C20.1076 22.7557 20.332 22.668 20.566 22.668C20.8 22.668 21.0243 22.7557 21.1898 22.912V22.912Z" />
<path fill-rule="evenodd" clip-rule="evenodd" d="M18.7086 21.7461L20.5615 23.4961L19.3139 24.6744L17.4609 22.9244L18.7086 21.7461Z" />
<path fill-rule="evenodd" clip-rule="evenodd" d="M13.5156 25.8333C13.5156 25.6123 13.6086 25.4004 13.7741 25.2441C13.9395 25.0878 14.164 25 14.398 25H15.6333C15.8673 25 16.0917 25.0878 16.2572 25.2441C16.4227 25.4004 16.5156 25.6123 16.5156 25.8333C16.5156 26.0543 16.4227 26.2663 16.2572 26.4226C16.0917 26.5789 15.8673 26.6667 15.6333 26.6667H14.398C14.164 26.6667 13.9395 26.5789 13.7741 26.4226C13.6086 26.2663 13.5156 26.0543 13.5156 25.8333Z" />
<path fill-rule="evenodd" clip-rule="evenodd" d="M14.9839 22.668C15.2179 22.668 15.4424 22.7558 15.6078 22.912C15.7733 23.0683 15.8663 23.2803 15.8663 23.5013V25.8346C15.8663 26.0556 15.7733 26.2676 15.6078 26.4239C15.4424 26.5802 15.2179 26.668 14.9839 26.668C14.7499 26.668 14.5255 26.5802 14.36 26.4239C14.1945 26.2676 14.1016 26.0556 14.1016 25.8346V23.5013C14.1016 23.2803 14.1945 23.0683 14.36 22.912C14.5255 22.7558 14.7499 22.668 14.9839 22.668Z" />
<path fill-rule="evenodd" clip-rule="evenodd" d="M9.43803 22.912C9.6035 22.7557 9.82788 22.668 10.0619 22.668C10.2958 22.668 10.5202 22.7557 10.6857 22.912L11.921 24.0786C12.0817 24.2358 12.1706 24.4463 12.1686 24.6648C12.1666 24.8833 12.0738 25.0923 11.9102 25.2468C11.7466 25.4013 11.5253 25.489 11.294 25.4909C11.0626 25.4927 10.8397 25.4088 10.6733 25.257L9.43803 24.0903C9.27261 23.934 9.17969 23.7221 9.17969 23.5011C9.17969 23.2802 9.27261 23.0682 9.43803 22.912V22.912Z" />
<path fill-rule="evenodd" clip-rule="evenodd" d="M13.1397 22.9244L11.2867 24.6744L10.0391 23.4961L11.892 21.7461L13.1397 22.9244Z" />
<path fill-rule="evenodd" clip-rule="evenodd" d="M8.81204 18.582C9.04606 18.582 9.27049 18.6698 9.43596 18.8261C9.60143 18.9824 9.69439 19.1944 9.69439 19.4154V20.582C9.69439 20.803 9.60143 21.015 9.43596 21.1713C9.27049 21.3276 9.04606 21.4154 8.81204 21.4154C8.57803 21.4154 8.3536 21.3276 8.18812 21.1713C8.02265 21.015 7.92969 20.803 7.92969 20.582V19.4154C7.92969 19.1944 8.02265 18.9824 8.18812 18.8261C8.3536 18.6698 8.57803 18.582 8.81204 18.582Z" />
<path fill-rule="evenodd" clip-rule="evenodd" d="M7.92969 20.0013C7.92969 19.7803 8.02265 19.5683 8.18812 19.412C8.3536 19.2558 8.57803 19.168 8.81204 19.168H11.2826C11.5166 19.168 11.7411 19.2558 11.9065 19.412C12.072 19.5683 12.165 19.7803 12.165 20.0013C12.165 20.2223 12.072 20.4343 11.9065 20.5906C11.7411 20.7468 11.5166 20.8346 11.2826 20.8346H8.81204C8.57803 20.8346 8.3536 20.7468 8.18812 20.5906C8.02265 20.4343 7.92969 20.2223 7.92969 20.0013Z" />
<path fill-rule="evenodd" clip-rule="evenodd" d="M11.9103 14.744C12.0757 14.9003 12.1687 15.1122 12.1687 15.3332C12.1687 15.5541 12.0757 15.766 11.9103 15.9223L10.675 17.089C10.5086 17.2408 10.2857 17.3248 10.0544 17.3229C9.82302 17.321 9.60172 17.2333 9.43812 17.0788C9.27453 16.9243 9.18173 16.7153 9.17972 16.4968C9.17771 16.2783 9.26665 16.0678 9.42737 15.9107L10.6627 14.744C10.8281 14.5878 11.0525 14.5 11.2865 14.5C11.5205 14.5 11.7448 14.5878 11.9103 14.744Z" />
<path fill-rule="evenodd" clip-rule="evenodd" d="M11.892 18.2565L10.0391 16.5065L11.2867 15.3281L13.1397 17.0781L11.892 18.2565Z" />
<path d="M19.4095 19.9987C19.4095 21.1038 18.9447 22.1636 18.1173 22.945C17.2899 23.7264 16.1678 24.1654 14.9977 24.1654C13.8276 24.1654 12.7055 23.7264 11.8781 22.945C11.0507 22.1636 10.5859 21.1038 10.5859 19.9987C10.5859 18.8936 11.0507 17.8338 11.8781 17.0524C12.7055 16.271 13.8276 15.832 14.9977 15.832C16.1678 15.832 17.2899 16.271 18.1173 17.0524C18.9447 17.8338 19.4095 18.8936 19.4095 19.9987V19.9987Z" />
    <defs>
        <linearGradient id="paint0_linear" x1="24.425" y1="2.504" x2="9.929" y2="16.55" gradientUnits="userSpaceOnUse">
            <stop stop-color="var(--color-primary)"/>
            <stop offset="1" stop-color="var(--color-purple)"/>
        </linearGradient>
    </defs>
</svg>
