<svg width="30" height="29" viewBox="0 0 30 29" fill="none" xmlns="http://www.w3.org/2000/svg">
<path d="M29.3791 13.9309L15.7485 0.310211C15.6504 0.211875 15.5338 0.133859 15.4055 0.080629C15.2771 0.0273991 15.1396 0 15.0006 0C14.8617 0 14.7241 0.0273991 14.5958 0.080629C14.4675 0.133859 14.3509 0.211875 14.2527 0.310211L0.62213 13.9309C0.225026 14.328 0 14.8674 0 15.43C0 16.5981 0.949741 17.5479 2.11789 17.5479H3.55409V27.267C3.55409 27.8527 4.0273 28.3259 4.61303 28.3259H12.8827V20.9133H16.589V28.3259H25.3882C25.9739 28.3259 26.4472 27.8527 26.4472 27.267V17.5479H27.8834C28.4459 17.5479 28.9853 17.3261 29.3824 16.9257C30.2064 16.0984 30.2064 14.7582 29.3791 13.9309Z" fill="white"/>
</svg>
