<svg width="375" height="369" viewBox="0 0 375 369" fill="none" xmlns="http://www.w3.org/2000/svg">
<g style="mix-blend-mode:darken">
<rect width="376" height="191" fill="url(#paint0_linear)"/>
</g>
<path d="M-0.500244 244H374.611L375.5 118.5C372 118 368.499 122.5 368.499 122.5C364.944 121.454 356 114.304 343.5 119.5C333 123.865 325.5 127 313.5 135.5C310.077 136.206 305.555 133.587 302 134C297.841 134.483 294.638 137.952 290.5 138.182C288.31 138.304 286.138 138.402 284 138.488C278.5 136.5 277.407 133.18 276.5 132.5C276.5 132.5 275 133 272 133C269 133 266.5 137 265 139C261.996 139.154 263 135 232.5 128.5C229.5 127.861 231 134 225.5 135.5C224.012 136.303 223.999 135.653 222.5 136.5C221.702 136.951 221.5 135 219.5 135.5C217.2 136.818 213.817 138.432 211 139.729C210.089 140.149 209.237 139.397 208.5 139.729C207.224 140.305 206.294 141.856 206 142C189.222 144.446 201.135 142.191 196.5 143C194 142 196.5 140 187.5 138C181 142.5 180.854 145.165 177 146C174 146 172 135 165 132.5C158.872 133.379 154.663 137.16 148.5 138C136 133 123.5 142.5 111.5 139.5L107.5 145.5C107.5 145.5 100 144.5 92 144.5C87.1668 145.076 82.0476 148.561 78 149C78 149 80 151 72.5 153.5C67.5 153 66.5 150 66.5 150C66.5 150 43.0557 150.183 34.5 150.885C32.8492 151.02 31.1754 153.349 29.5 153.5C27.49 153.681 27 148 25 150C20.859 150.405 17.2112 152.85 13.5 153.5C5.81335 154.845 -0.500244 154.5 -0.500244 154.5V244Z" fill="url(#paint1_linear)"/>
<path d="M375 243.178V309.001H0.000472903L9.75728e-05 193.645C9.75728e-05 190.798 -2.99484 196.281 4.00516 192.781C7.50516 192.781 48.5051 168.981 59.5051 180.781C62.9986 180.133 75.5052 186.281 77.5052 186.281C79.5052 186.281 81.0052 192.781 82.5052 192.781C85.9187 193.21 91.4298 190.668 95.0052 190.281C96.5516 190.113 98.0492 188.454 99.5052 188.281C101.367 188.059 103.264 188.916 105.005 188.781C110.204 188.377 114.83 187.039 119.5 184.853C127.861 183.42 135.985 182.421 140.505 181.781C143.753 181.321 144.17 176.918 146.005 176.781C147.918 176.639 149.099 177.152 150.005 177.281C153.238 177.742 153.505 180.281 158 184.854C166.005 186.281 195.385 196.267 208 200C223.514 204.594 245.957 203.192 264 193.628C267 192.628 264.5 190.628 268 190.628C271.606 190.629 270.474 195.595 271 195.5C271.787 195.359 271.627 192.058 272.5 191.949C273.627 191.809 275.309 189.688 276.5 189.628C278 191.128 278.011 191.573 279 191.597C280.032 191.622 281.042 191.693 282 191.819C286.5 192.409 306.523 209.912 324 212C333.725 213.158 366.307 246.196 375 243.178Z" fill="url(#paint2_linear)"/>
<path d="M0 247L0.000632584 221C4.5 224 219.675 228.112 220.501 228.081C250.077 226.969 269.217 222.887 277 219C283.111 215.948 320.537 203.412 324.501 202.834C332.501 203.834 348.001 215.5 375.501 220.5V247H0Z" fill="url(#paint3_linear)"/>
<path d="M1 265.289C1.0647 266.543 1 369 1 369H82.5H375V281.238L375 238.883C329.521 225.758 190.52 232.273 69 225.5L1 222C1 222 1.0647 240.513 1 265.289Z" fill="url(#paint4_linear)"/>
<defs>
<linearGradient id="paint0_linear" x1="332.5" y1="19.5" x2="235.735" y2="191.426" gradientUnits="userSpaceOnUse">
<stop stop-color="#ECD77E"/>
<stop offset="0.401042" stop-color="#F4AF50"/>
</linearGradient>
<linearGradient id="paint1_linear" x1="256.5" y1="88.0015" x2="256.5" y2="312.002" gradientUnits="userSpaceOnUse">
<stop stop-color="#E18965"/>
<stop offset="0.0001" stop-color="#CF8060"/>
<stop offset="0.3125" stop-color="#EA8C68"/>
<stop offset="0.494792" stop-color="#F3A076"/>
</linearGradient>
<linearGradient id="paint2_linear" x1="187.497" y1="178.614" x2="196.997" y2="309" gradientUnits="userSpaceOnUse">
<stop stop-color="#CD7460"/>
<stop offset="0.255208" stop-color="#DD847C"/>
</linearGradient>
<linearGradient id="paint3_linear" x1="294.519" y1="197.021" x2="294.519" y2="276.035" gradientUnits="userSpaceOnUse">
<stop stop-color="#DA7B6A"/>
<stop offset="1" stop-color="#DB847D"/>
</linearGradient>
<linearGradient id="paint4_linear" x1="200.5" y1="220" x2="200.5" y2="326.102" gradientUnits="userSpaceOnUse">
<stop stop-color="#D9817D" stop-opacity="0.73"/>
<stop offset="0.5" stop-color="#D48183"/>
<stop offset="1" stop-color="#C78092"/>
</linearGradient>
</defs>
</svg>
