<svg width="30" height="23" viewBox="0 0 30 23" xmlns="http://www.w3.org/2000/svg">
    <path d="M16.8756 5.62473C21.4973 5.62473 24.1184 8.57583 24.499 12.1382H24.6153C27.5889 12.1382 30 14.4574 30 17.3185C30 20.1796 27.5889 22.4989 24.6153 22.4989H9.13602C6.16241 22.4989 3.75128 20.1796 3.75128 17.3185C3.75128 14.4574 6.16241 12.1382 9.13602 12.1382H9.25226C9.63662 8.55146 12.254 5.62473 16.8756 5.62473ZM11.9859 6.5351e-08C14.7157 6.5351e-08 17.0969 1.55242 18.2724 3.83419C17.809 3.77737 17.3425 3.74919 16.8756 3.74982C12.3946 3.74982 9.12852 6.20032 7.96232 9.91077L7.84608 10.312L7.75983 10.6626L7.45047 10.7189C6.31823 10.9495 5.26067 11.4568 4.37213 12.1955C3.4836 12.9342 2.79172 13.8813 2.35822 14.9524C1.46503 14.4082 0.768683 13.5933 0.370396 12.6262C-0.0278899 11.6591 -0.107352 10.5902 0.143562 9.57484C0.394475 8.55948 0.962686 7.65061 1.76559 6.98034C2.5685 6.31007 3.56426 5.91335 4.60811 5.84784L5.02434 5.83847C5.31346 4.20229 6.16971 2.72025 7.44278 1.65256C8.71585 0.584869 10.3244 -0.000225769 11.9859 6.5351e-08Z"
          fill="white"/>
</svg>
