<svg width="30" height="24" viewBox="0 0 30 24" fill="none" xmlns="http://www.w3.org/2000/svg">
    <path d="M20.37 19.2L15 15.75L9.63 19.2L11.25 13.02L6.315 9L12.69 8.61L15 2.7L17.31 8.61L23.685 9L18.75 13.02L20.37 19.2ZM27 12C27 11.2044 27.3161 10.4413 27.8787 9.87868C28.4413 9.31607 29.2044 9 30 9V3C30 2.20435 29.6839 1.44129 29.1213 0.87868C28.5587 0.31607 27.7956 0 27 0H3C2.20435 0 1.44129 0.31607 0.87868 0.87868C0.31607 1.44129 0 2.20435 0 3V9C0.79565 9 1.55871 9.31607 2.12132 9.87868C2.68393 10.4413 3 11.2044 3 12C3 12.7956 2.68393 13.5587 2.12132 14.1213C1.55871 14.6839 0.79565 15 0 15V21C0 21.7956 0.31607 22.5587 0.87868 23.1213C1.44129 23.6839 2.20435 24 3 24H27C27.7956 24 28.5587 23.6839 29.1213 23.1213C29.6839 22.5587 30 21.7956 30 21V15C29.2044 15 28.4413 14.6839 27.8787 14.1213C27.3161 13.5587 27 12.7956 27 12Z"
          fill="white"/>
</svg>
