<svg width="37" height="30" viewBox="0 0 37 30" fill="none" xmlns="http://www.w3.org/2000/svg">

    <path d="M18.614 12.7343L3.67188 2.15137L4.33123 1.63672L18.5655 5.8699L19.9957 4.76087C20.1444 4.65898 20.3072 4.61112 20.4706 4.6212C20.6341 4.63128 20.7936 4.69901 20.9362 4.81886C21.1932 5.05806 21.1884 5.42774 20.9362 5.6307L20.0636 6.35556L24.9699 7.88502L18.614 12.7343Z M18.6179 12.7343L3.67578 2.15137L4.33513 1.63672L18.5694 5.8699L19.9996 4.76087C20.1483 4.65898 20.3111 4.61112 20.4745 4.6212C20.638 4.63128 20.7975 4.69901 20.9402 4.81886C21.1971 5.05806 21.1923 5.42774 20.9402 5.6307L20.0675 6.35556L24.9739 7.88502L18.6179 12.7343Z M22.7962 7.1234C29.54 1.86091 34.9845 -1.14726 36.628 0.411193C38.2716 1.96964 34.3251 6.3768 27.625 11.69L21.6956 15.9812C15.7566 19.9824 9.66243 23.3893 9.66243 23.3893L9.93878 29.5288L9.3473 30L6.6808 25.5711C6.6808 25.5711 5.18756 26.6366 4.35852 25.8538C3.52948 25.0709 4.88697 23.8822 4.88697 23.8822L0 21.2074L0.591479 20.7073L7.66498 21.4901C7.66498 21.4901 12.1786 16.5538 17.3129 11.806L22.7962 7.1234Z M30.136 14.2853L28.7058 15.4161L32.3419 28.0141L31.6826 28.5288L21.6953 15.967L27.6246 11.6758L28.3276 14.1041L29.2051 13.3792C29.3539 13.2773 29.5166 13.2295 29.6801 13.2395C29.8435 13.2496 30.0031 13.3173 30.1457 13.4372C30.4026 13.7126 30.3978 14.0823 30.136 14.2853Z"
          fill="white"/>


</svg>
