<svg width="30" height="26" viewBox="0 0 30 26" fill="none" xmlns="http://www.w3.org/2000/svg">
<path d="M26.1705 3.5176C25.8695 2.49698 25.2448 1.60192 24.3906 0.967422C23.5364 0.332927 22.4991 -0.00658631 21.435 9.68063e-05C20.2018 0.00119748 19.0136 0.463546 18.104 1.29625C17.1944 2.12896 16.6292 3.2718 16.5195 4.5001H13.482C13.3708 3.27051 12.8037 2.12698 11.8922 1.29428C10.9806 0.461587 9.79061 -5.46301e-05 8.556 9.68063e-05C7.49337 -0.00511921 6.45782 0.33511 5.60534 0.969532C4.75286 1.60395 4.12962 2.49821 3.8295 3.5176L0.0630001 16.0696C0.0217393 16.2094 0.000527759 16.3543 0 16.5001V18.0001C0.00238253 19.9888 0.79353 21.8952 2.19986 23.3013C3.60619 24.7073 5.51285 25.4981 7.5015 25.5001C8.95902 25.4976 10.3843 25.0707 11.6032 24.2716C12.8221 23.4725 13.782 22.3357 14.3655 21.0001H15.6345C16.218 22.3357 17.1779 23.4725 18.3968 24.2716C19.6157 25.0707 21.041 25.4976 22.4985 25.5001C24.4874 25.4981 26.3943 24.7071 27.8007 23.3008C29.207 21.8944 29.998 19.9875 30 17.9986V16.5001C30 16.3531 29.9775 16.2091 29.937 16.0696L26.1705 3.5176ZM7.5015 22.5001C6.30837 22.4985 5.16455 22.0239 4.32074 21.1804C3.47693 20.3369 3.00198 19.1932 3 18.0001C3 17.8861 3.0255 17.7796 3.033 17.6671C3.11507 16.5373 3.62092 15.4802 4.44924 14.7075C5.27757 13.9348 6.36723 13.5036 7.5 13.5001C8.69347 13.5001 9.83807 13.9742 10.682 14.8181C11.5259 15.662 12 16.8066 12 18.0001V18.0136C11.9949 19.204 11.5189 20.344 10.676 21.1846C9.83315 22.0252 8.69189 22.4981 7.5015 22.5001ZM22.4985 22.5001C21.3081 22.4981 20.1669 22.0252 19.324 21.1846C18.4811 20.344 18.0051 19.204 18 18.0136V18.0001C17.9999 17.4091 18.1162 16.824 18.3423 16.278C18.5683 15.732 18.8997 15.2358 19.3175 14.8179C20.1613 13.9738 21.3058 13.4995 22.4993 13.4993C23.6927 13.4991 24.8374 13.9731 25.6814 14.8168C26.5255 15.6606 26.9998 16.8051 27 17.9986C26.9984 19.192 26.5236 20.336 25.6798 21.1799C24.8359 22.0237 23.6919 22.4985 22.4985 22.5001Z" fill="white"/>
</svg>
