<svg width="240" height="477" viewBox="0 0 240 477" fill="none" xmlns="http://www.w3.org/2000/svg">
    <path d="M1.11272 31.0736C0.504729 14.095 14.104 0 31.0935 0H50.2105C66.7791 0 80.2105 13.4315 80.2105 30V446.211C80.2105 462.779 66.7791 476.211 50.2105 476.211H45.9976C29.8468 476.211 16.5948 463.425 16.0168 447.284L1.11272 31.0736Z"
          fill="url(#paint0_linear)"/>
    <mask id="path-2-inside-1" fill="white">
        <path d="M53.8316 6.10352e-05C156.65 6.10352e-05 240 76.3473 240 170.526C240 264.705 156.65 341.053 53.8316 341.053C-48.9863 341.053 146.973 264.705 146.973 170.526C146.973 76.3473 -48.9863 6.10352e-05 53.8316 6.10352e-05Z"/>
    </mask>
    <path d="M53.8316 100C109.863 100 140 139.656 140 170.526L340 170.526C340 13.0388 203.436 -99.9999 53.8316 -99.9999L53.8316 100ZM140 170.526C140 201.397 109.863 241.053 53.8316 241.053L53.8316 441.053C203.436 441.053 340 328.014 340 170.526L140 170.526ZM53.8316 241.053C40.6708 241.053 54.5394 238.769 73.5232 248.391C86.4726 254.955 109.814 271.416 119.832 304C129.267 334.688 120.443 359.333 116.085 368.945C109.002 384.567 99.7407 391.309 106.937 384.483C111.029 380.602 116.801 375.678 126.784 367.153C144.092 352.373 172.025 328.62 195.222 300.391C217.479 273.306 246.973 228.463 246.973 170.526H46.9729C46.9729 159.68 51.9723 159.697 40.6998 173.415C30.3671 185.989 15.7366 198.981 -3.09295 215.061C-11.1784 221.965 -21.869 230.999 -30.7002 239.376C-36.427 244.808 -55.0722 262.108 -66.0674 286.358C-72.3821 300.286 -81.7938 328.762 -71.3377 362.773C-60.299 398.678 -34.3268 417.95 -16.8956 426.785C11.0516 440.95 41.2879 441.053 53.8316 441.053L53.8316 241.053ZM246.973 170.526C246.973 112.59 217.479 67.7468 195.222 40.6617C172.025 12.4331 144.092 -11.32 126.784 -26.0999C116.801 -34.6251 111.029 -39.5488 106.937 -43.4301C99.7407 -50.256 109.002 -43.5143 116.085 -27.8927C120.443 -18.2798 129.267 6.36432 119.832 37.053C109.814 69.6368 86.4726 86.0982 73.5232 92.6616C54.5394 102.283 40.6708 100 53.8316 100L53.8316 -99.9999C41.2879 -99.9999 11.0516 -99.8975 -16.8956 -85.7325C-34.3268 -76.8975 -60.299 -57.6253 -71.3377 -21.7198C-81.7938 12.2905 -72.3821 40.7669 -66.0674 54.6944C-55.0722 78.9451 -36.427 96.2446 -30.7002 101.677C-21.869 110.053 -11.1784 119.088 -3.09295 125.992C15.7366 142.071 30.3671 155.064 40.6998 167.638C51.9723 181.356 46.9729 181.373 46.9729 170.526H246.973Z"
          fill="url(#paint1_linear)" mask="url(#path-2-inside-1)"/>
    <defs>
        <linearGradient id="paint0_linear" x1="40.1053" y1="0" x2="40.1053" y2="476.211" gradientUnits="userSpaceOnUse">
            <stop stop-color="#3CAFEB"/>
            <stop offset="1" stop-color="#621D7A"/>
        </linearGradient>
        <linearGradient id="paint1_linear" x1="43.5789" y1="27.7895" x2="361.263" y2="216.632"
                        gradientUnits="userSpaceOnUse">
            <stop stop-color="#3EA4E3"/>
            <stop offset="1" stop-color="#621D7A"/>
        </linearGradient>
    </defs>
</svg>
