<svg width="467" height="573" viewBox="0 0 467 573" fill="none" xmlns="http://www.w3.org/2000/svg">
<path fill-rule="evenodd" clip-rule="evenodd" d="M439.8 243.6C457.4 215.2 466.2 184 466.2 150C466.2 121.6 459.4 96.2 445.8 73.8C432.6 51 412.8 33 386.4 19.8C360.4 6.6 328.6 0 291 0C237.8 0 189 14.2 144.6 42.6C100.6 70.6 65.4 113 39 169.8C13 226.2 0 295 0 376.2C0 419.4 6.2 455.8 18.6 485.4C31 515 47.4 537 67.8 551.4C88.6 565.8 111.2 573 135.6 573C180 573 207.2 545.2 217.2 489.6L243 345C289.4 341.8 329.4 331.2 363 313.2C396.6 295.2 422.2 272 439.8 243.6ZM276.896 78.778C272.44 69.7407 259.56 69.7407 255.104 78.778L233.879 121.777L186.415 128.672C176.45 130.122 172.472 142.381 179.682 149.402L214.022 182.887L205.912 230.144C204.219 240.082 214.643 247.643 223.554 242.962L265.996 220.639L308.446 242.962C317.366 247.643 327.79 240.073 326.079 230.144L317.969 182.887L352.318 149.402C359.528 142.372 355.55 130.122 345.585 128.672L298.121 121.777L276.896 78.778Z" fill="url(#paint0_linear)"/>
<defs>
<linearGradient id="paint0_linear" x1="59.5" y1="393" x2="394.473" y2="180.012" gradientUnits="userSpaceOnUse">
<stop stop-color="#743FED"/>
<stop offset="0.99" stop-color="#3CAFEB"/>
</linearGradient>
</defs>
</svg>
